<svg enable-background="new 0 0 2167.7 2502.5" viewBox="0 0 2167.7 2502.5" xmlns="http://www.w3.org/2000/svg" xmlns:xlink="http://www.w3.org/1999/xlink"><linearGradient id="a"><stop offset="0" stop-color="#25376c"/><stop offset="1" stop-color="#1f1f49"/></linearGradient><linearGradient id="b" gradientTransform="matrix(27.4398 0 0 -27.4398 -20755.2402 46646.2188)" gradientUnits="userSpaceOnUse" x1="795.8919" x2="795.8919" xlink:href="#a" y1="1699.9476" y2="1608.7477"/><linearGradient id="c" gradientTransform="matrix(27.4398 0 0 -27.4398 -20755.2402 46646.2188)" gradientUnits="userSpaceOnUse" x1="776.1419" x2="776.1419" xlink:href="#a" y1="1608.7477" y2="1699.9476"/><path d="m1083.9 0-1083.9 625.6v1251.3l1083.9 625.6 1083.9-625.6v-1251.3z" fill="url(#b)"/><path d="m1083.9 0-1083.9 625.6v1251.3l1083.9 625.6z" fill="url(#c)"/><g fill="#fff"><path d="m1506.4 540.6h-850.6l-98.8 433.5h1053.7zm-699.7 1029v-288.1l-252.4-159.2-285.4 211.3 389.6 677.8h156.5l183.8-172.9v-85.1z"/><path d="m1358.3 1040h-548.8l90.6 241.5-27.4 271.7h422.6l-27.4-271.7z"/><path d="m1610.7 1119.5-249.7 161.9v288.1l-189.3 183.8v85.1l183.8 170.1h153.7l386.9-675z"/></g></svg>