<?xml version="1.0" standalone="no"?><!DOCTYPE svg PUBLIC "-//W3C//DTD SVG 1.1//EN" "http://www.w3.org/Graphics/SVG/1.1/DTD/svg11.dtd"><svg t="1653435952738" class="icon" viewBox="0 0 1024 1024" version="1.1" xmlns="http://www.w3.org/2000/svg" p-id="13642" xmlns:xlink="http://www.w3.org/1999/xlink" width="200" height="200"><defs><style type="text/css">@font-face { font-family: feedback-iconfont; src: url("//at.alicdn.com/t/font_1031158_u69w8yhxdu.woff2?t=1630033759944") format("woff2"), url("//at.alicdn.com/t/font_1031158_u69w8yhxdu.woff?t=1630033759944") format("woff"), url("//at.alicdn.com/t/font_1031158_u69w8yhxdu.ttf?t=1630033759944") format("truetype"); }
</style></defs><path d="M443.733333 631.466667H102.4c-10.24 0-17.066667-6.826667-17.066667-17.066667 0-98.986667 78.506667-170.666667 187.733334-170.666667s187.733333 71.68 187.733333 170.666667c0 10.24-6.826667 17.066667-17.066667 17.066667z m-324.266666-34.133334h303.786666c-6.826667-71.68-68.266667-119.466667-153.6-119.466666s-139.946667 47.786667-150.186666 119.466666z" fill="" p-id="13643"></path><path d="M273.066667 477.866667c-58.026667 0-102.4-44.373333-102.4-102.4s44.373333-102.4 102.4-102.4 102.4 44.373333 102.4 102.4-44.373333 102.4-102.4 102.4z m0-170.666667c-37.546667 0-68.266667 30.72-68.266667 68.266667s30.72 68.266667 68.266667 68.266666 68.266667-30.72 68.266666-68.266666-30.72-68.266667-68.266666-68.266667zM921.6 358.4H580.266667c-10.24 0-17.066667-6.826667-17.066667-17.066667s6.826667-17.066667 17.066667-17.066666h341.333333c10.24 0 17.066667 6.826667 17.066667 17.066666s-6.826667 17.066667-17.066667 17.066667zM785.066667 494.933333h-204.8c-10.24 0-17.066667-6.826667-17.066667-17.066666s6.826667-17.066667 17.066667-17.066667h204.8c10.24 0 17.066667 6.826667 17.066666 17.066667s-6.826667 17.066667-17.066666 17.066666zM921.6 631.466667H580.266667c-10.24 0-17.066667-6.826667-17.066667-17.066667s6.826667-17.066667 17.066667-17.066667h341.333333c10.24 0 17.066667 6.826667 17.066667 17.066667s-6.826667 17.066667-17.066667 17.066667z" fill="" p-id="13644"></path><path d="M989.866667 836.266667h-136.533334c-10.24 0-17.066667-6.826667-17.066666-17.066667 0-3.413333 0-3.413333-3.413334-6.826667-3.413333-6.826667-3.413333-13.653333 0-17.066666 3.413333-3.413333 3.413333-6.826667 3.413334-6.826667 0-10.24-6.826667-17.066667-17.066667-17.066667s-17.066667 6.826667-17.066667 17.066667c0 3.413333 0 3.413333 3.413334 6.826667 3.413333 6.826667 3.413333 13.653333 0 17.066666-3.413333 3.413333-3.413333 6.826667-3.413334 6.826667 0 10.24-6.826667 17.066667-17.066666 17.066667h-136.533334c-10.24 0-17.066667-6.826667-17.066666-17.066667 0-3.413333 0-3.413333-3.413334-6.826667-3.413333-6.826667-3.413333-13.653333 0-17.066666 3.413333-3.413333 3.413333-6.826667 3.413334-6.826667 0-10.24-6.826667-17.066667-17.066667-17.066667s-17.066667 6.826667-17.066667 17.066667c0 3.413333 0 3.413333 3.413334 6.826667 3.413333 6.826667 3.413333 13.653333 0 17.066666-3.413333 3.413333-3.413333 6.826667-3.413334 6.826667 0 10.24-6.826667 17.066667-17.066666 17.066667h-136.533334c-10.24 0-17.066667-6.826667-17.066666-17.066667 0-3.413333 0-3.413333-3.413334-6.826667-3.413333-6.826667-3.413333-13.653333 0-17.066666 3.413333-3.413333 3.413333-6.826667 3.413334-6.826667 0-10.24-6.826667-17.066667-17.066667-17.066667s-17.066667 6.826667-17.066667 17.066667c0 3.413333 0 3.413333 3.413334 6.826667 3.413333 6.826667 3.413333 13.653333 0 17.066666-3.413333 3.413333-3.413333 6.826667-3.413334 6.826667 0 10.24-6.826667 17.066667-17.066666 17.066667H238.933333c-10.24 0-17.066667-6.826667-17.066666-17.066667 0-3.413333 0-3.413333-3.413334-6.826667-3.413333-6.826667-3.413333-13.653333 0-17.066666 3.413333-3.413333 3.413333-6.826667 3.413334-6.826667 0-10.24-6.826667-17.066667-17.066667-17.066667s-17.066667 3.413333-17.066667 13.653334c0 3.413333 0 3.413333 3.413334 6.826666 3.413333 6.826667 3.413333 13.653333 0 17.066667-3.413333 3.413333-3.413333 6.826667-3.413334 6.826667 0 10.24-6.826667 17.066667-17.066666 17.066666H34.133333c-10.24 0-17.066667-6.826667-17.066666-17.066666V204.8c0-10.24 6.826667-17.066667 17.066666-17.066667h955.733334c10.24 0 17.066667 6.826667 17.066666 17.066667v614.4c0 10.24-6.826667 17.066667-17.066666 17.066667z m-122.88-34.133334h105.813333v-580.266666h-921.6v580.266666h105.813333c-3.413333-6.826667-3.413333-10.24-3.413333-17.066666 0-27.306667 23.893333-51.2 51.2-51.2s51.2 23.893333 51.2 51.2c0 6.826667 0 10.24-3.413333 17.066666h109.226666c-3.413333-6.826667-3.413333-10.24-3.413333-17.066666 0-27.306667 23.893333-51.2 51.2-51.2s51.2 23.893333 51.2 51.2c0 6.826667 0 10.24-3.413333 17.066666h109.226666c-3.413333-6.826667-3.413333-10.24-3.413333-17.066666 0-27.306667 23.893333-51.2 51.2-51.2s51.2 23.893333 51.2 51.2c0 6.826667 0 10.24-3.413333 17.066666h109.226666c-3.413333-6.826667-3.413333-10.24-3.413333-17.066666 0-27.306667 23.893333-51.2 51.2-51.2s51.2 23.893333 51.2 51.2c0 6.826667 0 10.24-3.413333 17.066666z" fill="" p-id="13645"></path></svg>