<?xml version="1.0" standalone="no"?><!DOCTYPE svg PUBLIC "-//W3C//DTD SVG 1.1//EN" "http://www.w3.org/Graphics/SVG/1.1/DTD/svg11.dtd"><svg t="1653448394015" class="icon" viewBox="0 0 1024 1024" version="1.1" xmlns="http://www.w3.org/2000/svg" p-id="43719" xmlns:xlink="http://www.w3.org/1999/xlink" width="200" height="200"><defs><style type="text/css">@font-face { font-family: feedback-iconfont; src: url("//at.alicdn.com/t/font_1031158_u69w8yhxdu.woff2?t=1630033759944") format("woff2"), url("//at.alicdn.com/t/font_1031158_u69w8yhxdu.woff?t=1630033759944") format("woff"), url("//at.alicdn.com/t/font_1031158_u69w8yhxdu.ttf?t=1630033759944") format("truetype"); }
</style></defs><path d="M669.465798 967.925938 147.978367 967.925938c-66.360807 0-120.343007-53.9822-120.343007-120.343207l0-681.945641c0-66.360807 53.9822-120.343007 120.343007-120.343007l521.487432 0c66.361007 0 120.343207 53.9822 120.343207 120.343007l0 217.867286c0 22.15298-17.942035 40.114003-40.114003 40.114003-22.172967 0-40.114003-17.960823-40.114003-40.114003L709.581 165.63709c0-22.113207-17.980809-40.114003-40.114003-40.114003L147.978367 125.523087c-22.113207 0-40.114003 18.000795-40.114003 40.114003l0 681.944642c0 22.133194 18.000795 40.114003 40.114003 40.114003l521.487432 0c22.133194 0 40.114003-17.980809 40.114003-40.114003l0-77.329571c0-22.172967 17.942035-40.114003 40.114003-40.114003 22.172967 0 40.114003 17.942035 40.114003 40.114003l0 77.329571C789.809005 913.943538 735.826805 967.925938 669.465798 967.925938zM911.272253 322.104405 627.622368 605.757488l-20.018827 114.569522 108.593574-33.08317L996.366959 407.20131 911.272253 322.104405zM228.187585 747.296125c-3.329742 0-6.717845-0.822642-9.833133-2.585447-9.656053-5.445108-13.064342-17.667821-7.619234-27.343861 85.889767-152.230788 119.089058-147.02112 130.214914-145.218742 8.089116 1.25395 22.368634 6.933499 27.245528 30.712177 4.191158 20.448936 5.386548 41.055165 6.346297 57.62473 0.215654 3.603957 0.450095 7.639021 0.724309 11.556964l14.494173-15.865443c29.850761-33.02341 48.027238-52.84657 70.827379-47.478809 19.64628 4.583692 25.639816 25.894044 27.618075 32.867516 3.290969 11.712859 3.309756 22.643048 2.232686 31.88778 2.996768-1.292724 6.385071-2.821087 10.244454-4.583692 10.048787-4.622266 21.957313-0.157093 26.579779 9.950254 4.583692 10.067374 0.157093 21.977299-9.950254 26.559792-31.926354 14.533946-49.222827 21.663112-62.855384 10.420135-12.045833-9.871707-8.617757-24.36588-6.366284-34.003146 2.095579-8.814624 4.446585-18.842225 1.488391-29.340907-0.038774-0.157093-0.078547-0.312988-0.117121-0.469881-7.913435 6.737832-19.861734 19.939281-29.949294 31.104711l-16.139657 17.667821c-8.558997 9.244732-26.305365 28.518265-46.147312 21.271778-19.70484-7.051819-20.977577-28.949572-22.721595-59.231641-0.842629-14.259732-1.762605-30.203522-4.485359-45.911872-18.470677 16.17943-53.766546 66.008047-84.341616 120.225887C241.996023 743.613622 235.179844 747.296125 228.187585 747.296125zM188.09137 285.983495l441.258427 0 0 40.111804L188.09137 326.095299C188.09137 326.095299 188.09137 285.983495 188.09137 285.983495zM188.09137 366.210301l441.258427 0 0 40.115202L188.09137 406.325503C188.09137 406.325503 188.09137 366.210301 188.09137 366.210301zM188.09137 446.440505l361.029422 0 0 40.111804-361.029222 0C188.09137 486.55231 188.09137 446.440505 188.09137 446.440505z" p-id="43720"></path></svg>