<?xml version="1.0" standalone="no"?><!DOCTYPE svg PUBLIC "-//W3C//DTD SVG 1.1//EN" "http://www.w3.org/Graphics/SVG/1.1/DTD/svg11.dtd"><svg t="1653437639466" class="icon" viewBox="0 0 1024 1024" version="1.1" xmlns="http://www.w3.org/2000/svg" p-id="37412" xmlns:xlink="http://www.w3.org/1999/xlink" width="200" height="200"><defs><style type="text/css">@font-face { font-family: feedback-iconfont; src: url("//at.alicdn.com/t/font_1031158_u69w8yhxdu.woff2?t=1630033759944") format("woff2"), url("//at.alicdn.com/t/font_1031158_u69w8yhxdu.woff?t=1630033759944") format("woff"), url("//at.alicdn.com/t/font_1031158_u69w8yhxdu.ttf?t=1630033759944") format("truetype"); }
</style></defs><path d="M896 736v160h-160v-64h96v-96h64zM192 736v96h96v64H128v-160h64z m320-416c86.496 0 156.352 71.584 159.872 160.48L672 512h64v-32a224.64 224.64 0 0 0-6.24-52.8 32 32 0 0 1 62.208-15.04c4.256 17.664 6.848 35.712 7.68 54.08L800 512h96v64h-96v192a32 32 0 0 1-63.776 3.744L736 576h-64v192a32 32 0 0 1-63.776 3.744L608 576h-64v32a32 32 0 0 1-63.776 3.744L480 608v-32h-64v192a32 32 0 0 1-63.776 3.744L352 576H287.968L288 768a32 32 0 0 1-63.776 3.744L223.968 576H128v-64h96a32 32 0 0 1 63.776-3.744L288 512H352v-24.48c0-29.28 7.2-57.536 20.736-82.528a32 32 0 0 1 56.288 30.464 108.48 108.48 0 0 0-12.736 44.16L416 512h64v-32a32 32 0 0 1 63.776-3.744L544 512h64v-24.48c0-55.584-40.448-100.352-90.592-103.36L512 384a32 32 0 0 1 0-64z m0 352a32 32 0 0 1 31.776 28.256L544 704v64a32 32 0 0 1-63.776 3.744L480 768v-64a32 32 0 0 1 32-32z m0-480a287.2 287.2 0 0 1 207.84 88.64 32 32 0 0 1-46.176 44.32 224.096 224.096 0 0 0-377.92 96.416 32 32 0 0 1-61.76-16.736A288.096 288.096 0 0 1 512 192z m384-64v160h-64V192h-96V128h160zM288 128v64H192v96H128V128h160z" p-id="37413"></path></svg>