<?xml version="1.0" standalone="no"?><!DOCTYPE svg PUBLIC "-//W3C//DTD SVG 1.1//EN" "http://www.w3.org/Graphics/SVG/1.1/DTD/svg11.dtd"><svg t="1654006963036" class="icon" viewBox="0 0 1024 1024" version="1.1" xmlns="http://www.w3.org/2000/svg" p-id="7674" xmlns:xlink="http://www.w3.org/1999/xlink" width="200" height="200"><defs><style type="text/css">@font-face { font-weight: 400; font-style: normal; font-family: Circular-Loom; src: url("https://cdn.loom.com/assets/fonts/circular/CircularXXWeb-Book-cd7d2bcec649b1243839a15d5eb8f0a3.woff2") format("woff2"); }
@font-face { font-weight: 500; font-style: normal; font-family: Circular-Loom; src: url("https://cdn.loom.com/assets/fonts/circular/CircularXXWeb-Medium-d74eac43c78bd5852478998ce63dceb3.woff2") format("woff2"); }
@font-face { font-weight: 700; font-style: normal; font-family: Circular-Loom; src: url("https://cdn.loom.com/assets/fonts/circular/CircularXXWeb-Bold-83b8ceaf77f49c7cffa44107561909e4.woff2") format("woff2"); }
@font-face { font-weight: 900; font-style: normal; font-family: Circular-Loom; src: url("https://cdn.loom.com/assets/fonts/circular/CircularXXWeb-Black-bf067ecb8aa777ceb6df7d72226febca.woff2") format("woff2"); }
@font-face { font-family: feedback-iconfont; src: url("//at.alicdn.com/t/font_1031158_u69w8yhxdu.woff2?t=1630033759944") format("woff2"), url("//at.alicdn.com/t/font_1031158_u69w8yhxdu.woff?t=1630033759944") format("woff"), url("//at.alicdn.com/t/font_1031158_u69w8yhxdu.ttf?t=1630033759944") format("truetype"); }
</style></defs><path d="M677.888 335.872l-176.128 0c-2.048 0-2.048 0-2.048-2.048 0-2.048 0-2.048 0-2.048l43.008-43.008c8.192-8.192 8.192-20.48 0-28.672-8.192-8.192-20.48-8.192-28.672 0l-81.92 81.92c-6.144 6.144-8.192 14.336-4.096 22.528 4.096 8.192 10.24 12.288 18.432 12.288l233.472 0c57.344 0 106.496 47.104 108.544 102.4 2.048 53.248-36.864 100.352-90.112 108.544-10.24 2.048-18.432 10.24-18.432 20.48 0 6.144 2.048 12.288 8.192 16.384 4.096 4.096 8.192 4.096 14.336 4.096 0 0 2.048 0 2.048 0 73.728-10.24 126.976-75.776 124.928-149.504C827.392 401.408 759.808 335.872 677.888 335.872z" p-id="7675"></path><path d="M598.016 598.016 364.544 598.016c-57.344 0-106.496-47.104-108.544-102.4-2.048-53.248 36.864-100.352 90.112-108.544 10.24-2.048 18.432-10.24 18.432-20.48 0-6.144-2.048-12.288-8.192-16.384-4.096-4.096-10.24-6.144-16.384-4.096-73.728 10.24-126.976 75.776-124.928 149.504 2.048 79.872 69.632 143.36 149.504 143.36l176.128 0c2.048 0 2.048 0 2.048 2.048 0 2.048 0 2.048 0 2.048l-43.008 43.008c-4.096 4.096-6.144 8.192-6.144 14.336 0 6.144 2.048 10.24 6.144 14.336 4.096 4.096 10.24 6.144 14.336 6.144 6.144 0 10.24-2.048 14.336-6.144l81.92-81.92c6.144-6.144 8.192-14.336 4.096-22.528C614.4 602.112 606.208 598.016 598.016 598.016z" p-id="7676"></path></svg>