<svg enable-background="new 0 0 512 512" viewBox="0 0 512 512" xmlns="http://www.w3.org/2000/svg"><circle cx="256" cy="256" fill="#f7b91c" r="250"/><path d="m296.7 59.5v54.1c6.5 1.5 12.7 3.4 18.6 5.7 6 2.4 11.6 4.7 17 7-2.6 6.5-5.3 12.9-8.1 19.2-2.8 6.4-5.5 12.6-8.1 18.9-8.2-3.9-17.3-7.7-27.3-11.5-10-3.7-21.6-5.5-34.5-5.5-14.4 0-26.2 2.9-35.4 8.6-9.2 5.8-13.7 14.1-13.7 25.2 0 26.8 24.1 47.3 72.5 61.5 48.4 14.3 72.5 42.3 72.5 84.4 0 15.8-4.7 30-14.1 42.6s-22.7 21.9-39.5 28.2v54.6l-33-2.9v-44.8c-2.8.2-5.8.6-9.1.9-3.3.2-6.5.4-10 .4h-6.4v46.4h-32.6v-52c-9.5-2.2-18.4-5.1-26.4-8.2-8.1-3.3-13.9-6.3-17.5-9.1l11-38.1c8.2 4.3 19 8.4 32.3 12.7 13.4 4.3 26.4 6.4 39.1 6.4 18.9 0 33.1-3.3 42.8-9.8 9.5-6.5 14.4-15.4 14.4-26.6 0-25.7-24.1-45.5-72.3-59.4s-72.3-42.7-72.3-86.1c0-14.9 4.4-28.3 13.1-40.2 8.8-11.8 20.8-20.9 35.9-27.1v-55.5l32.6 1.7v46.1c2.6-.2 5.2-.6 7.9-.9 2.7-.2 5.2-.4 7.4-.4 2 0 3.7.1 5.3.2s3.1.3 4.8.7v-47.4z" fill="#fff"/></svg>