<svg enable-background="new 0 0 512 512" viewBox="0 0 512 512" xmlns="http://www.w3.org/2000/svg"><g clip-rule="evenodd" fill="#b5b5b6" fill-rule="evenodd"><path d="m484.2 132.8c0-19.8-11.6-37.9-29.6-46.1l-177.5-81.1c-13.4-6.1-28.8-6.1-42.2 0l-177.5 81.1c-18 8.2-29.6 26.3-29.6 46.1v246.3c0 19.8 11.6 37.9 29.6 46.1l177.5 81.1c13.4 6.1 28.8 6.1 42.2 0l177.5-81.1c18-8.2 29.6-26.3 29.6-46.1zm-33.8 0v246.3c0 6.6-3.9 12.6-9.9 15.4l-177.5 81.2c-4.5 2-9.6 2-14.1 0l-177.4-81.2c-6-2.8-9.9-8.8-9.9-15.4v-246.3c0-6.6 3.8-12.7 9.9-15.4l177.5-81.1c4.5-2 9.6-2 14.1 0l177.5 81.1c6 2.8 9.8 8.8 9.8 15.4z"/><path d="m256 166.7c-49.3 0-89.3 40-89.3 89.3s40 89.3 89.3 89.3 89.3-40 89.3-89.3-40-89.3-89.3-89.3zm0 33.8c30.7 0 55.5 24.9 55.5 55.5s-24.9 55.5-55.5 55.5-55.5-24.9-55.5-55.5c0-30.7 24.8-55.5 55.5-55.5z"/></g></svg>