<?xml version="1.0" standalone="no"?><!DOCTYPE svg PUBLIC "-//W3C//DTD SVG 1.1//EN" "http://www.w3.org/Graphics/SVG/1.1/DTD/svg11.dtd"><svg t="1653448940758" class="icon" viewBox="0 0 1024 1024" version="1.1" xmlns="http://www.w3.org/2000/svg" p-id="55402" xmlns:xlink="http://www.w3.org/1999/xlink" width="200" height="200"><defs><style type="text/css">@font-face { font-family: feedback-iconfont; src: url("//at.alicdn.com/t/font_1031158_u69w8yhxdu.woff2?t=1630033759944") format("woff2"), url("//at.alicdn.com/t/font_1031158_u69w8yhxdu.woff?t=1630033759944") format("woff"), url("//at.alicdn.com/t/font_1031158_u69w8yhxdu.ttf?t=1630033759944") format("truetype"); }
</style></defs><path d="M788.992 651.434667l16.896 52.053333c1.706667 4.949333 6.314667 8.362667 11.605333 8.362667h54.784c11.776 0 16.725333 15.018667 7.168 22.016l-44.373333 32.256c-4.266667 3.072-5.973333 8.533333-4.437333 13.653333l16.896 52.053333c3.584 11.264-9.216 20.48-18.773334 13.653334l-44.373333-32.256a12.288 12.288 0 0 0-14.336 0l-44.373333 32.256c-9.557333 6.997333-22.357333-2.389333-18.773334-13.653334l16.896-52.053333c1.706667-4.949333-0.170667-10.581333-4.437333-13.653333L674.986667 733.866667c-9.557333-6.997333-4.608-22.016 7.168-22.016h54.784c5.290667 0 9.898667-3.413333 11.605333-8.362667l16.896-52.053333c4.096-11.264 19.968-11.264 23.552 0z" fill="#333333" p-id="55403"></path><path d="M557.226667 983.722667H187.733333a94.037333 94.037333 0 0 1-93.866666-93.866667v-768c0-51.712 42.154667-93.866667 93.866666-93.866667h648.533334c51.712 0 93.866667 42.154667 93.866666 93.866667V494.933333c0 14.165333-11.434667 25.6-25.6 25.6s-25.6-11.434667-25.6-25.6V121.856a42.666667 42.666667 0 0 0-42.666666-42.666667H187.733333a42.666667 42.666667 0 0 0-42.666666 42.666667v768a42.666667 42.666667 0 0 0 42.666666 42.666667h369.493334c14.165333 0 25.6 11.434667 25.6 25.6s-11.434667 25.6-25.6 25.6z" fill="#333333" p-id="55404"></path><path d="M466.773333 701.952H231.424c-14.165333 0-25.6-11.434667-25.6-25.6s11.434667-25.6 25.6-25.6h235.349333c14.165333 0 25.6 11.434667 25.6 25.6s-11.434667 25.6-25.6 25.6zM349.866667 817.493333h-118.442667c-14.165333 0-25.6-11.434667-25.6-25.6s11.434667-25.6 25.6-25.6h118.442667c14.165333 0 25.6 11.434667 25.6 25.6s-11.434667 25.6-25.6 25.6zM777.557333 974.848c-117.077333 0-212.309333-95.232-212.309333-212.309333 0-117.077333 95.232-212.309333 212.309333-212.309334 117.077333 0 212.309333 95.232 212.309334 212.309334 0 117.077333-95.232 212.309333-212.309334 212.309333z m0-373.418667c-88.917333 0-161.109333 72.362667-161.109333 161.109334s72.362667 161.109333 161.109333 161.109333S938.666667 851.285333 938.666667 762.538667s-72.362667-161.109333-161.109334-161.109334z" fill="#333333" p-id="55405"></path><path d="M696.149333 508.757333H327.850667v-86.698666c0-29.354667 23.893333-53.248 53.248-53.248h63.317333c-1.536-1.877333-3.584-3.925333-5.12-5.632-15.701333-16.896-41.813333-45.226667-41.813333-99.328 0-83.626667 63.488-113.322667 117.76-113.322667 54.613333 0 112.981333 29.696 112.981333 113.322667 0 52.394667-24.917333 79.018667-39.765333 95.061333-3.072 3.242667-7.168 7.509333-8.533334 9.898667v0.341333h62.976c29.354667 0 53.248 23.893333 53.248 53.248v86.357333z m-317.098666-51.2h265.898666v-35.498666c0-1.194667-0.853333-2.048-2.048-2.048h-80.896c-33.28 0-33.28-29.354667-33.28-52.906667 0-19.456 11.776-32.085333 22.357334-43.349333 12.8-13.653333 26.112-27.818667 26.112-60.074667 0-41.301333-20.821333-62.122667-61.781334-62.122667-30.378667 0-66.56 10.752-66.56 62.122667 0 34.133333 15.018667 50.346667 28.16 64.682667 9.557333 10.24 20.309333 22.016 20.309334 38.741333 0 11.605333 0 19.797333-1.877334 27.477333-4.096 15.701333-16.554667 25.6-32.768 25.6h-81.408c-1.194667 0-2.048 0.853333-2.048 2.048l-0.170666 35.328z" fill="#333333" p-id="55406"></path></svg>