<?xml version="1.0" standalone="no"?><!DOCTYPE svg PUBLIC "-//W3C//DTD SVG 1.1//EN" "http://www.w3.org/Graphics/SVG/1.1/DTD/svg11.dtd"><svg t="1653065974746" class="icon" viewBox="0 0 1024 1024" version="1.1" xmlns="http://www.w3.org/2000/svg" p-id="1206" xmlns:xlink="http://www.w3.org/1999/xlink" width="200" height="200"><defs><style type="text/css">@font-face { font-family: feedback-iconfont; src: url("//at.alicdn.com/t/font_1031158_u69w8yhxdu.woff2?t=1630033759944") format("woff2"), url("//at.alicdn.com/t/font_1031158_u69w8yhxdu.woff?t=1630033759944") format("woff"), url("//at.alicdn.com/t/font_1031158_u69w8yhxdu.ttf?t=1630033759944") format("truetype"); }
</style></defs><path d="M566.858961 353.327484A254.872687 254.872687 0 0 0 512 511.898843a340.951848 340.951848 0 0 1-340.738886 341.207402H86.076393a42.592361 42.592361 0 0 1 0-85.184721h85.184721A255.767126 255.767126 0 0 0 426.815279 511.898843a340.738886 340.738886 0 0 1 340.738885-341.164809h67.551485l-97.664284-97.96243A42.592361 42.592361 0 1 1 797.666964 12.460821l170.369442 170.369443a42.592361 42.592361 0 0 1 0 60.310783l-170.369442 170.369443a42.592361 42.592361 0 0 1-60.225599-60.310783l97.664284-97.96243H767.554164a254.915279 254.915279 0 0 0-200.695203 98.090207zM86.076393 255.83357h85.184721a254.915279 254.915279 0 0 1 200.695204 97.493914 426.988416 426.988416 0 0 1 42.592361-80.414377 339.588892 339.588892 0 0 0-243.37275-102.221666h-85.184721A42.592361 42.592361 0 0 0 86.076393 255.83357z m711.590571 353.516595a42.592361 42.592361 0 0 0-60.225599 60.310782l97.664284 97.96243H767.554164a254.915279 254.915279 0 0 1-200.695203-97.493914 424.560652 424.560652 0 0 1-42.592361 80.414377 339.631485 339.631485 0 0 0 243.372749 102.221666h67.551484l-97.664283 97.96243a42.592361 42.592361 0 1 0 60.225598 60.26819l170.369443-170.369443a42.592361 42.592361 0 0 0 0-60.310782z" p-id="1207"></path></svg>