<?xml version="1.0" standalone="no"?><!DOCTYPE svg PUBLIC "-//W3C//DTD SVG 1.1//EN" "http://www.w3.org/Graphics/SVG/1.1/DTD/svg11.dtd"><svg t="1654007493586" class="icon" viewBox="0 0 1024 1024" version="1.1" xmlns="http://www.w3.org/2000/svg" p-id="10445" xmlns:xlink="http://www.w3.org/1999/xlink" width="200" height="200"><defs><style type="text/css">@font-face { font-weight: 400; font-style: normal; font-family: Circular-Loom; src: url("https://cdn.loom.com/assets/fonts/circular/CircularXXWeb-Book-cd7d2bcec649b1243839a15d5eb8f0a3.woff2") format("woff2"); }
@font-face { font-weight: 500; font-style: normal; font-family: Circular-Loom; src: url("https://cdn.loom.com/assets/fonts/circular/CircularXXWeb-Medium-d74eac43c78bd5852478998ce63dceb3.woff2") format("woff2"); }
@font-face { font-weight: 700; font-style: normal; font-family: Circular-Loom; src: url("https://cdn.loom.com/assets/fonts/circular/CircularXXWeb-Bold-83b8ceaf77f49c7cffa44107561909e4.woff2") format("woff2"); }
@font-face { font-weight: 900; font-style: normal; font-family: Circular-Loom; src: url("https://cdn.loom.com/assets/fonts/circular/CircularXXWeb-Black-bf067ecb8aa777ceb6df7d72226febca.woff2") format("woff2"); }
@font-face { font-family: feedback-iconfont; src: url("//at.alicdn.com/t/font_1031158_u69w8yhxdu.woff2?t=1630033759944") format("woff2"), url("//at.alicdn.com/t/font_1031158_u69w8yhxdu.woff?t=1630033759944") format("woff"), url("//at.alicdn.com/t/font_1031158_u69w8yhxdu.ttf?t=1630033759944") format("truetype"); }
</style></defs><path d="M678.912 148.361846l3.072 3.229539 205.508923 238.237538a39.384615 39.384615 0 0 1-56.162461 54.980923l-3.465847-3.544615-136.270769-158.011077v555.480615a39.384615 39.384615 0 0 1-34.816 39.148308l-4.608 0.236308a39.384615 39.384615 0 0 1-39.108923-34.776616l-0.275692-4.608V177.309538c0-34.973538 41.668923-51.908923 66.126769-28.947692zM382.739692 137.846154a39.384615 39.384615 0 0 1 39.108923 34.776615l0.275693 4.608v661.425231c0 34.973538-41.668923 51.948308-66.12677 28.947692l-3.072-3.229538L147.416615 626.215385a39.384615 39.384615 0 0 1 56.162462-55.020308l3.465846 3.544615 136.310154 158.011077V177.230769a39.384615 39.384615 0 0 1 34.776615-39.108923l4.608-0.275692z" p-id="10446"></path></svg>