<?xml version="1.0" standalone="no"?><!DOCTYPE svg PUBLIC "-//W3C//DTD SVG 1.1//EN" "http://www.w3.org/Graphics/SVG/1.1/DTD/svg11.dtd"><svg t="1651140636037" class="icon" viewBox="0 0 1024 1024" version="1.1" xmlns="http://www.w3.org/2000/svg" p-id="2011" xmlns:xlink="http://www.w3.org/1999/xlink" width="200" height="200"><defs><style type="text/css">@font-face { font-family: feedback-iconfont; src: url("//at.alicdn.com/t/font_1031158_u69w8yhxdu.woff2?t=1630033759944") format("woff2"), url("//at.alicdn.com/t/font_1031158_u69w8yhxdu.woff?t=1630033759944") format("woff"), url("//at.alicdn.com/t/font_1031158_u69w8yhxdu.ttf?t=1630033759944") format("truetype"); }
</style></defs><path d="M534.493867 78.762667l359.850666 346.9312c26.112 25.088 26.9312 67.754667 1.8432 93.866666L697.105067 724.8896c-25.088 26.094933-67.754667 26.9312-93.8496 1.8432L243.4048 379.818667c-26.094933-25.088-26.9312-67.754667-1.8432-93.8496L440.644267 80.622933c25.088-26.112 66.696533-28.296533 93.8496-1.860266z" fill="#FFD3D7" p-id="2012"></path><path d="M322.935467 155.989333l460.288 195.396267c33.006933 13.994667 49.937067 52.718933 35.2768 87.278933l-111.36 262.3488c-14.011733 32.989867-52.736 49.937067-87.278934 35.259734L159.556267 540.893867c-32.989867-13.994667-49.937067-52.718933-35.259734-87.278934l111.36-262.3488c13.994667-33.006933 54.272-49.271467 87.278934-35.2768z" fill="#FB560A" p-id="2013"></path><path d="M150.186667 708.266667h723.626666l92.16 128c34.133333 47.786667 15.36 85.333333-44.373333 85.333333H93.866667C35.84 921.6 17.066667 884.053333 51.2 836.266667l98.986667-128z" fill="#DAE9FF" p-id="2014"></path><path d="M225.28 349.866667h597.333333c59.733333 0 107.52 47.786667 107.52 107.52v281.6c0 59.733333-47.786667 107.52-107.52 107.52h-597.333333c-59.733333 0-107.52-47.786667-107.52-107.52V457.386667c0-59.733333 47.786667-107.52 107.52-107.52z" fill="#DAE9FF" p-id="2015"></path><path d="M208.213333 349.866667h558.08c59.733333 0 107.52 47.786667 107.52 107.52v281.6c0 59.733333-47.786667 107.52-107.52 107.52H208.213333c-59.733333 0-107.52-47.786667-107.52-107.52V457.386667c0-59.733333 47.786667-107.52 107.52-107.52z" fill="#3889FF" p-id="2016"></path><path d="M605.866667 759.466667m-25.6 0a25.6 25.6 0 1 0 51.2 0 25.6 25.6 0 1 0-51.2 0Z" fill="#FFFFFF" p-id="2017"></path><path d="M691.2 759.466667m-25.6 0a25.6 25.6 0 1 0 51.2 0 25.6 25.6 0 1 0-51.2 0Z" fill="#FFFFFF" p-id="2018"></path><path d="M776.533333 759.466667m-25.6 0a25.6 25.6 0 1 0 51.2 0 25.6 25.6 0 1 0-51.2 0Z" fill="#FFFFFF" p-id="2019"></path><path d="M233.813333 460.8c-15.36 0-29.013333 11.946667-29.013333 27.306667 0 15.36 11.946667 27.306667 29.013333 27.306666h527.36c15.36 0 29.013333-11.946667 29.013334-27.306666 0-15.36-11.946667-27.306667-29.013334-27.306667H233.813333z" fill="#DAE9FF" p-id="2020"></path><path d="M216.746667 443.733333c-15.36 0-29.013333 11.946667-29.013334 27.306667 0 15.36 11.946667 27.306667 29.013334 27.306667h527.36c15.36 0 29.013333-15.36 29.013333-27.306667s-13.653333-27.306667-29.013333-27.306667H216.746667z" fill="#FFFFFF" p-id="2021"></path></svg>