<svg viewBox="0 0 512 512" xmlns="http://www.w3.org/2000/svg"><g fill="#df5b23"><path d="m139.35 258.58 103.22 98.28a6.22 6.22 0 0 1 1.93 4.5v142a2.67 2.67 0 0 1 -4.37 2.05l-225.03-187.29a6.21 6.21 0 0 1 -2.24-4.78v-114.34a6.21 6.21 0 0 1 2.24-4.78l225-187.58a2.67 2.67 0 0 1 4.37 2.05v142.25a6.27 6.27 0 0 1 -1.95 4.53l-103.16 97.31a4 4 0 0 0 -.01 5.8z"/><path d="m499.14 199v114.34a6.21 6.21 0 0 1 -2.24 4.78l-225 187.26a2.67 2.67 0 0 1 -4.37-2.05v-142a6.19 6.19 0 0 1 1.92-4.49l102.55-98.27a4 4 0 0 0 0-5.78l-102.56-97.33a6.19 6.19 0 0 1 -1.94-4.46v-142.33a2.67 2.67 0 0 1 4.37-2l225 187.58a6.21 6.21 0 0 1 2.27 4.75z"/></g></svg>