<?xml version="1.0" standalone="no"?><!DOCTYPE svg PUBLIC "-//W3C//DTD SVG 1.1//EN" "http://www.w3.org/Graphics/SVG/1.1/DTD/svg11.dtd"><svg t="1653437595920" class="icon" viewBox="0 0 1024 1024" version="1.1" xmlns="http://www.w3.org/2000/svg" p-id="35033" xmlns:xlink="http://www.w3.org/1999/xlink" width="200" height="200"><defs><style type="text/css">@font-face { font-family: feedback-iconfont; src: url("//at.alicdn.com/t/font_1031158_u69w8yhxdu.woff2?t=1630033759944") format("woff2"), url("//at.alicdn.com/t/font_1031158_u69w8yhxdu.woff?t=1630033759944") format("woff"), url("//at.alicdn.com/t/font_1031158_u69w8yhxdu.ttf?t=1630033759944") format("truetype"); }
</style></defs><path d="M790.1 348.2h-32.4v-90.1c0-131.1-110.2-237.6-245.5-237.6-135.8 0-246 106.4-246 237.6v90.1h-32.4c-83.6 0-151.9 67.6-151.9 151.5v353c0 83.3 67.8 150.9 151.9 150.9h556.3c83.6 0 151.9-67.6 151.9-150.9V499c0.1-83.3-67.7-150.8-151.9-150.8z m-441.9-90.1c0-85.8 73.6-155.7 164.1-155.7 90.2 0 163.6 69.8 163.6 155.7v83.8H348.2v-83.8z m512 594.5c0 38-31.4 69-70 69H233.9c-38.6 0-70-30.9-70-69v-353c0-38.3 31.4-69.5 70-69.5h556.3c38.6 0 70 30.9 70 69v353.5z" p-id="35034"></path><path d="M512 553c-22.5 0-41 18.4-41 41v163.8c0 22.5 18.4 41 41 41 22.5 0 41-18.4 41-41V593.9c0-22.5-18.5-40.9-41-40.9z" p-id="35035"></path></svg>