<?xml version="1.0" encoding="UTF-8"?>
<svg width="40px" height="40px" viewBox="0 0 40 40" version="1.1" xmlns="http://www.w3.org/2000/svg" xmlns:xlink="http://www.w3.org/1999/xlink">
    <title>Icons/Tokens/BNB</title>
    <g id="Icons/Tokens/BNB" stroke="none" stroke-width="1" fill="none" fill-rule="evenodd">
        <circle id="Oval" fill="#F3BA2E" cx="20" cy="20" r="20"></circle>
        <path d="M13.7805497,17.44672 L19.9918441,11.23248 L26.2063368,17.44992 L29.8205297,13.83392 L19.9918441,4 L10.1665167,13.83072 L13.7805497,17.44672 M4.00009595,19.999504 L7.6144008,16.383392 L11.2284658,19.99928 L7.6141929,23.61536 L4.00009595,19.999504 Z M13.7805497,22.55328 L19.9918441,28.76752 L26.2061769,22.55024 L29.8222889,26.16432 L29.8205297,26.16624 L19.9918441,36 L10.1661969,26.1696 L10.1610795,26.16448 L13.7805497,22.55328 M28.7558301,20.001488 L32.3701349,16.385392 L35.9841999,20.001264 L32.369911,23.617376 L28.7558301,20.001488 Z" id="Shape" fill="#FFFFFF" fill-rule="nonzero"></path>
        <polyline id="Path" fill="#FFFFFF" fill-rule="nonzero" points="23.6576912 19.99808 23.6592904 19.99808 19.9918441 16.3288 17.2815192 19.04048 17.2813593 19.04048 16.969995 19.35216 16.3277561 19.99488 16.3226387 19.99984 16.3277561 20.00512 19.9918441 23.6712 23.6592904 20.00192 23.6610495 19.99984 23.6576912 19.99808"></polyline>
    </g>
</svg>