<?xml version="1.0" standalone="no"?><!DOCTYPE svg PUBLIC "-//W3C//DTD SVG 1.1//EN" "http://www.w3.org/Graphics/SVG/1.1/DTD/svg11.dtd"><svg t="1651159875360" class="icon" viewBox="0 0 1024 1024" version="1.1" xmlns="http://www.w3.org/2000/svg" p-id="11876" xmlns:xlink="http://www.w3.org/1999/xlink" width="200" height="200"><defs><style type="text/css">@font-face { font-family: feedback-iconfont; src: url("//at.alicdn.com/t/font_1031158_u69w8yhxdu.woff2?t=1630033759944") format("woff2"), url("//at.alicdn.com/t/font_1031158_u69w8yhxdu.woff?t=1630033759944") format("woff"), url("//at.alicdn.com/t/font_1031158_u69w8yhxdu.ttf?t=1630033759944") format("truetype"); }
</style></defs><path d="M512.01 81.858c-237.562 0-430.14 192.586-430.14 430.148 0 237.552 192.578 430.134 430.14 430.134 237.544 0 430.13-192.582 430.13-430.134 0-237.562-192.586-430.148-430.13-430.148z" fill="#EDF3FC" p-id="11877"></path><path d="M512.01 2C230.788 2 2 230.786 2 512.004 2 793.218 230.788 1022 512.01 1022 793.222 1022 1022 793.218 1022 512.004 1022 230.786 793.222 2 512.01 2z m0 1003.662c-272.212 0-493.664-221.454-493.664-493.658C18.346 239.794 239.8 18.336 512.01 18.336c272.202 0 493.646 221.458 493.646 493.668 0 272.204-221.446 493.658-493.646 493.658z" fill="#EDF3FC" p-id="11878"></path><path d="M697.89 221.82a60.518 60.518 0 0 1-43.992-43.992l-0.932-3.692-0.926 3.692a60.516 60.516 0 0 1-43.998 43.992l-3.688 0.928 3.688 0.926a60.508 60.508 0 0 1 43.998 43.996l0.926 3.694 0.932-3.694a60.51 60.51 0 0 1 43.992-43.996l3.7-0.926-3.7-0.928zM776.544 253.2a38.646 38.646 0 0 1-28.094-28.092l-0.594-2.358-0.594 2.358a38.648 38.648 0 0 1-28.098 28.092l-2.356 0.592 2.356 0.592a38.642 38.642 0 0 1 28.098 28.096l0.594 2.36 0.594-2.36a38.64 38.64 0 0 1 28.094-28.096l2.362-0.592-2.362-0.592z" fill="#5D8EF9" p-id="11879"></path><path d="M248.54 642.28a59.01 59.01 0 0 1-42.886-42.884l-0.898-3.6-0.902 3.6a58.97 58.97 0 0 1-42.89 42.884l-3.586 0.906 3.586 0.912a58.94 58.94 0 0 1 42.89 42.874l0.902 3.602 0.898-3.602a58.994 58.994 0 0 1 42.886-42.874l3.606-0.912-3.606-0.906z" fill="#FFBE1B" p-id="11880"></path><path d="M775.194 748.586a59.444 59.444 0 0 1-43.18-43.182l-0.91-3.63-0.902 3.63a59.44 59.44 0 0 1-43.192 43.182l-3.622 0.906 3.622 0.908a59.426 59.426 0 0 1 43.192 43.182l0.902 3.63 0.91-3.63a59.428 59.428 0 0 1 43.18-43.182l3.636-0.908-3.636-0.906z" fill="#330D84" p-id="11881"></path><path d="M330.46 282.002c-93.88 0-169.992 76.106-169.992 170 0 86.854 65.15 158.442 149.234 168.688-0.034-0.73-0.056-1.46-0.056-2.198h1.194c-26.974 0-48.84-21.868-48.84-48.84h186.594a97.89 97.89 0 0 1 13.204-9.708c24.158-29.358 38.67-66.954 38.67-107.94 0-93.896-76.114-170.002-170.008-170.002z" fill="#FFBE1B" p-id="11882"></path><path d="M330.46 324.398c-70.472 0-127.608 57.126-127.608 127.604 0 52.922 32.222 98.318 78.118 117.648h98.982c45.894-19.33 78.118-64.726 78.118-117.648 0-70.478-57.132-127.604-127.61-127.604z" fill="#FFE37B" p-id="11883"></path><path d="M381.912 459.96c-4.552-5.248-10.656-8.708-18.332-10.356a110.25 110.25 0 0 0 4.428-2.042c0.824-0.406 2.308-1.444 4.428-3.096 6.26-4.718 9.384-11.926 9.384-21.606 0-8.032-2.77-15.224-8.32-21.596-3.07-3.428-7.646-6.14-13.73-8.162a51.042 51.042 0 0 0-5.79-1.49v-15.748h-21.716v14.236h-14.566v-14.236h-21.724v14.236H272.198v23.372h17.708v77.042h-17.708v23.382H295.974v14.242h21.724v-14.242h14.566v14.242h21.716v-14.772c11.81-1.274 20.468-4.9 25.896-10.974 5.896-6.61 8.852-14.23 8.852-22.854 0-7.794-2.274-14.31-6.816-19.578z m-64.372-46.49h13.282c8.144 0 13.922 0.888 17.344 2.658 3.432 1.768 5.138 5.394 5.138 10.894 0 5.484-1.858 9.064-5.576 10.71-3.722 1.656-9.418 2.482-17.084 2.482h-13.104v-26.744z m36.748 74.122c-3.966 1.952-9.898 2.92-17.806 2.92h-18.942v-28.504h16.29c9.206 0 15.904 0.916 20.096 2.738 4.196 1.836 6.296 5.612 6.296 11.34-0.004 5.722-1.98 9.56-5.934 11.506z" fill="#FFFFFF" p-id="11884"></path><path d="M691.166 281.994c-93.89 0-170.002 76.114-170.002 170.004 0 39.36 13.412 75.564 35.868 104.376a97.624 97.624 0 0 1 19.554 13.276H762c0 26.974-21.866 48.84-48.84 48.84h1.194c0 0.636-0.024 1.266-0.048 1.896 82.934-11.294 146.86-82.352 146.86-168.388-0.002-93.89-76.114-170.004-170-170.004z" fill="#5D8EF9" p-id="11885"></path><path d="M691.166 324.394c-70.476 0-127.612 57.128-127.612 127.606 0 52.926 32.226 98.324 78.126 117.652h98.966c45.898-19.328 78.126-64.726 78.126-117.652 0.002-70.478-57.132-127.606-127.606-127.606z" fill="#8AC9F9" p-id="11886"></path><path d="M691.166 367.098l-52.334 79.84 52.334 38.578 52.33-38.572z" fill="#FFFFFF" p-id="11887"></path><path d="M691.166 497.774l-52.334-41.22 52.334 81.222 52.33-81.222z" fill="#FFFFFF" p-id="11888"></path><path d="M576.586 569.65c14.516 12.688 25.242 29.6 30.214 48.84h106.36c26.974 0 48.84-21.868 48.84-48.84h-185.414z" fill="#6857E5" p-id="11889"></path><path d="M606.8 618.492a97.53 97.53 0 0 1 3.092 24.422c0 8.434-1.076 16.616-3.092 24.418h58.71c26.974 0 48.842-21.866 48.842-48.84H606.8z" fill="#7C72F7" p-id="11890"></path><path d="M606.8 667.33c-4.972 19.24-15.7 36.154-30.212 48.842h42.188c26.974 0 48.842-21.866 48.842-48.842H606.8z" fill="#8C7BFD" p-id="11891"></path><path d="M262 569.65c0 26.974 21.866 48.84 48.84 48.84h107.542c4.972-19.24 15.698-36.152 30.21-48.84H262z" fill="#6857E5" p-id="11892"></path><path d="M418.382 618.492h-108.736c0 26.974 21.868 48.84 48.842 48.84h59.892a97.396 97.396 0 0 1-3.092-24.418 97.6 97.6 0 0 1 3.094-24.422z" fill="#7C72F7" p-id="11893"></path><path d="M418.38 667.33h-61.998c0 26.976 21.868 48.842 48.842 48.842h43.37c-14.514-12.688-25.24-29.602-30.214-48.842z" fill="#8C7BFD" p-id="11894"></path><path d="M512.588 545.61c-53.734 0-97.298 43.562-97.298 97.304 0 53.74 43.564 97.3 97.298 97.3 53.742 0 97.304-43.56 97.304-97.3 0-53.744-43.562-97.304-97.304-97.304z" fill="#330D84" p-id="11895"></path><path d="M512.588 569.872c-40.336 0-73.036 32.698-73.036 73.038 0 40.336 32.7 73.038 73.036 73.038 40.34 0 73.042-32.702 73.042-73.038 0-40.338-32.702-73.038-73.042-73.038z" fill="#FFBE1B" p-id="11896"></path><path d="M503.422 617.994l-22.16 32.094-3.516-32.094h-12.19l5.626 50.414h9.52l34.91-50.414zM540.01 638.152c-4.44-1.178-7.2-2.2-8.268-3.064-1.072-0.866-1.396-2.032-0.968-3.5 0.426-1.466 1.312-2.644 2.648-3.534 1.34-0.888 2.95-1.334 4.824-1.334 4.662 0 8.7 1.66 12.116 4.976l8.082-8.222c-1.884-2.116-4.342-3.752-7.376-4.904a26.716 26.716 0 0 0-9.592-1.732c-5.142 0-9.814 1.298-14.004 3.894-4.19 2.596-6.984 6.288-8.376 11.072-1.39 4.786-1.052 8.294 1.02 10.53 2.068 2.236 5.828 4.05 11.292 5.446 3.436 0.914 5.65 1.816 6.642 2.706 0.99 0.89 1.268 2.092 0.828 3.606-0.44 1.514-1.38 2.716-2.814 3.606-1.438 0.89-3.188 1.336-5.254 1.336-4.618 0-8.952-2.38-13.002-7.14l-9.096 8.222c4.676 5.916 11.006 8.872 18.988 8.872 5.532 0 10.4-1.406 14.608-4.218 4.202-2.812 6.964-6.478 8.282-11 1.308-4.518 0.984-7.958-0.974-10.314-1.962-2.358-5.162-4.126-9.606-5.304z" fill="#330D84" p-id="11897"></path></svg>