<svg viewBox="0 0 512 512" xmlns="http://www.w3.org/2000/svg"><path d="m256 6c-138.07 0-250 111.93-250 250s111.93 250 250 250 250-111.93 250-250-111.93-250-250-250zm191.43 335.88a214.82 214.82 0 0 1 -23.36 29.21 186 186 0 0 1 -34.21 28.32 177.22 177.22 0 0 1 -41.28 19.59 150.77 150.77 0 0 1 -47.28 7.32q-42 0-77.4-12.24t-61.09-34.56a157.24 157.24 0 0 1 -53.45-103.43h-39.36a7.23 7.23 0 0 1 -7.23-7.23v-25.69a7.23 7.23 0 0 1 7.23-7.23h39.43a162.16 162.16 0 0 1 12.57-48.22 158.09 158.09 0 0 1 38.52-53.89q24.84-22.68 59.52-35.4t76.68-12.72q28.09 0 51.38 6.6a170.12 170.12 0 0 1 42.36 18.24 159.41 159.41 0 0 1 34.08 27.84 209.24 209.24 0 0 1 23.95 31.42 5.28 5.28 0 0 1 -1.44 7l-25.49 17.84a5.07 5.07 0 0 1 -7-1.15 260.56 260.56 0 0 0 -19.56-23.5 171.31 171.31 0 0 0 -25.81-22.68 124.85 124.85 0 0 0 -28.8-15.36 89.2 89.2 0 0 0 -31.39-5.69 110.23 110.23 0 0 0 -42.6 8.4 101.5 101.5 0 0 0 -35.64 24.84q-15.39 16.49-24.51 40.69a143.29 143.29 0 0 0 -8.11 35.74h39.43a7.23 7.23 0 0 1 7.23 7.23v25.66a7.23 7.23 0 0 1 -7.23 7.23h-39.4a137.42 137.42 0 0 0 8.56 36q9.6 24.25 25.44 40.69a106.84 106.84 0 0 0 36.49 25 111.49 111.49 0 0 0 43 8.52 85.22 85.22 0 0 0 31.81-5.88 111.25 111.25 0 0 0 27.59-16 169.31 169.31 0 0 0 24.13-23.29q9.66-11.29 18.62-23.68a5.1 5.1 0 0 1 7.14-1.1l25.24 18.52a5.27 5.27 0 0 1 1.24 7.04z" fill="#eb5c20"/></svg>