<svg class="icon" viewBox="0 0 1024 1024" xmlns="http://www.w3.org/2000/svg" width="200" height="200"><defs><style>@font-face{font-family:feedback-iconfont;src:url(//at.alicdn.com/t/font_1031158_u69w8yhxdu.woff2?t=1630033759944) format(&quot;woff2&quot;),url(//at.alicdn.com/t/font_1031158_u69w8yhxdu.woff?t=1630033759944) format(&quot;woff&quot;),url(//at.alicdn.com/t/font_1031158_u69w8yhxdu.ttf?t=1630033759944) format(&quot;truetype&quot;)}</style></defs><path d="M832 128H192c-38.4 0-64 25.6-64 64v448c0 38.4 25.6 64 64 64h640c38.4 0 64-25.6 64-64V192c0-38.4-25.6-64-64-64zm32 486.4c0 32-25.6 57.6-57.6 57.6H217.6c-32 0-57.6-25.6-57.6-57.6V217.6c0-32 25.6-57.6 57.6-57.6h588.8c32 0 57.6 25.6 57.6 57.6v396.8zM640 832h-32V704H416v128h-32c-19.2 0-32 12.8-32 32s12.8 32 32 32h256c19.2 0 32-12.8 32-32s-12.8-32-32-32z"/><path d="M736 268.8c-19.2 0-32 12.8-32 32v12.8l-108.8 160H576L448 352v-6.4c0-19.2-12.8-32-32-32-12.8 0-32 12.8-32 32v12.8l-96 140.8c-19.2 0-32 12.8-32 32s12.8 32 32 32 32-19.2 32-32v-12.8l96-140.8h12.8l134.4 128v6.4c0 19.2 12.8 32 32 32s32-12.8 32-32v-12.8l108.8-160c19.2-6.4 32-19.2 32-38.4 0-12.8-12.8-32-32-32z"/></svg>