<?xml version="1.0" standalone="no"?><!DOCTYPE svg PUBLIC "-//W3C//DTD SVG 1.1//EN" "http://www.w3.org/Graphics/SVG/1.1/DTD/svg11.dtd"><svg t="1653448475603" class="icon" viewBox="0 0 1024 1024" version="1.1" xmlns="http://www.w3.org/2000/svg" p-id="51013" xmlns:xlink="http://www.w3.org/1999/xlink" width="200" height="200"><defs><style type="text/css">@font-face { font-family: feedback-iconfont; src: url("//at.alicdn.com/t/font_1031158_u69w8yhxdu.woff2?t=1630033759944") format("woff2"), url("//at.alicdn.com/t/font_1031158_u69w8yhxdu.woff?t=1630033759944") format("woff"), url("//at.alicdn.com/t/font_1031158_u69w8yhxdu.ttf?t=1630033759944") format("truetype"); }
</style></defs><path d="M909 959H619a50 50 0 0 1-50-50v-80a50 50 0 0 1 50-50h32.827l55.091-95.421a90 90 0 1 1 114.453-0.241L876.315 779H909a50 50 0 0 1 50 50v80a50 50 0 0 1-50 50zM764 584a30 30 0 1 0 30 30 30 30 0 0 0-30-30z m0.3 120.194L721.109 779h86.154zM899 859a20 20 0 0 0-20-20H649a20 20 0 0 0-20 20v20a20 20 0 0 0 20 20h230a20 20 0 0 0 20-20v-20zM467.205 627.043a29.979 29.979 0 1 1 0 59.957H245.979a29.979 29.979 0 1 1 0-59.957h221.226zM216 366.979A29.979 29.979 0 0 1 245.979 337h448.042a29.979 29.979 0 1 1 0 59.957H245.979A29.979 29.979 0 0 1 216 366.979zM581.021 542H245.979A29.979 29.979 0 0 1 216 512.021v-0.042A29.979 29.979 0 0 1 245.979 482h335.042A29.979 29.979 0 0 1 611 511.979v0.042A29.979 29.979 0 0 1 581.021 542zM845 482a30 30 0 0 1-30-30V145a20 20 0 0 0-20-20H145a20 20 0 0 0-20 20v734a20 20 0 0 0 20 20h337a30 30 0 0 1 0 60H115a50 50 0 0 1-50-50V115a50 50 0 0 1 50-50h710a50 50 0 0 1 50 50v337a30 30 0 0 1-30 30z" fill="#333333" p-id="51014"></path></svg>