<?xml version="1.0" standalone="no"?><!DOCTYPE svg PUBLIC "-//W3C//DTD SVG 1.1//EN" "http://www.w3.org/Graphics/SVG/1.1/DTD/svg11.dtd"><svg t="1652706016770" class="icon" viewBox="0 0 1024 1024" version="1.1" xmlns="http://www.w3.org/2000/svg" p-id="16468" xmlns:xlink="http://www.w3.org/1999/xlink" width="200" height="200"><defs><style type="text/css">@font-face { font-family: feedback-iconfont; src: url("//at.alicdn.com/t/font_1031158_u69w8yhxdu.woff2?t=1630033759944") format("woff2"), url("//at.alicdn.com/t/font_1031158_u69w8yhxdu.woff?t=1630033759944") format("woff"), url("//at.alicdn.com/t/font_1031158_u69w8yhxdu.ttf?t=1630033759944") format("truetype"); }
</style></defs><path d="M167.424 157.696c-26.624 6.144-44.032 32.256-37.888 59.392 6.144 26.624 52.224 81.92 68.096 78.336 16.384-3.584 34.816-73.216 29.184-99.84-6.144-26.624-32.768-43.52-59.392-37.888zM79.872 320c-25.088 11.776-35.84 41.472-24.064 66.048 11.776 25.088 41.472 35.84 66.048 24.064 25.088-11.776 68.608-68.608 61.44-83.456-6.656-15.36-78.336-18.432-103.424-6.656z" fill="#FFB36E" p-id="16469"></path><path d="M681.984 127.488L305.664 228.352C225.28 249.856 177.664 332.8 199.168 413.184l100.864 376.32c21.504 80.384 104.448 128 184.832 106.496l376.32-100.864c80.384-21.504 128-104.448 106.496-184.832l-100.864-376.32c-21.504-79.872-104.448-128-184.832-106.496z m40.448 510.976c3.072 11.776-3.584 23.552-15.36 26.624l-108.032 29.184-132.608 35.328c-12.8 3.584-25.6-4.096-28.672-16.896l-18.944-71.168c-11.264-43.008 1.024-135.68 44.032-146.944s99.84 62.464 111.616 105.472l7.68 28.672c-9.728-35.328 2.048-108.544 37.376-118.272 35.328-9.728 81.92 48.128 91.648 83.456l11.264 44.544z m-19.968-250.368c-24.064 6.656-49.152-7.68-55.296-31.744-6.656-24.064 7.68-49.152 31.744-55.296 24.064-6.656 49.152 7.68 55.296 31.744 6.656 23.552-7.68 48.64-31.744 55.296z" fill="#FFB36E" p-id="16470"></path></svg>