<svg xmlns="http://www.w3.org/2000/svg" width="200" height="200" class="icon" viewBox="0 0 1024 1024"><defs/><path d="M446.112 177.545c137.568.22 252.613 104.598 266.163 241.493 13.563 136.896-78.778 261.819-213.618 289.009-134.853 27.203-268.386-52.157-308.945-183.609s25.018-272.252 151.738-325.78a267.236 267.236 0 0 1 104.662-21.113m0-62.06c-182.794 0-330.99 148.195-330.99 330.99s148.196 330.99 330.99 330.99 330.99-148.196 330.99-330.99-148.195-330.99-330.99-330.99zm431.322 793.34a30.85 30.85 0 0 1-21.941-9.101l-157.22-157.22c-11.753-12.18-11.585-31.535.374-43.508 11.973-11.972 31.328-12.14 43.494-.375l157.22 157.22a31.037 31.037 0 0 1 6.724 33.81 31.004 31.004 0 0 1-28.651 19.175zm0 0"/></svg>