<?xml version="1.0" standalone="no"?><!DOCTYPE svg PUBLIC "-//W3C//DTD SVG 1.1//EN" "http://www.w3.org/Graphics/SVG/1.1/DTD/svg11.dtd"><svg t="1651158484124" class="icon" viewBox="0 0 1024 1024" version="1.1" xmlns="http://www.w3.org/2000/svg" p-id="6365" xmlns:xlink="http://www.w3.org/1999/xlink" width="200" height="200"><defs><style type="text/css">@font-face { font-family: feedback-iconfont; src: url("//at.alicdn.com/t/font_1031158_u69w8yhxdu.woff2?t=1630033759944") format("woff2"), url("//at.alicdn.com/t/font_1031158_u69w8yhxdu.woff?t=1630033759944") format("woff"), url("//at.alicdn.com/t/font_1031158_u69w8yhxdu.ttf?t=1630033759944") format("truetype"); }
</style></defs><path d="M713.386667 897.706667c-47.786667 0-85.333333-37.546667-85.333334-85.333334s37.546667-85.333333 85.333334-85.333333 85.333333 37.546667 85.333333 85.333333-37.546667 85.333333-85.333333 85.333334z m0-136.533334c-27.306667 0-51.2 23.893333-51.2 51.2s23.893333 51.2 51.2 51.2 51.2-23.893333 51.2-51.2-20.48-51.2-51.2-51.2zM372.053333 897.706667c-47.786667 0-85.333333-37.546667-85.333333-85.333334s37.546667-85.333333 85.333333-85.333333 85.333333 37.546667 85.333334 85.333333-37.546667 85.333333-85.333334 85.333334z m0-136.533334c-27.306667 0-51.2 23.893333-51.2 51.2s23.893333 51.2 51.2 51.2 51.2-23.893333 51.2-51.2-20.48-51.2-51.2-51.2zM781.653333 692.906667H389.12c-58.026667 0-105.813333-40.96-116.053333-95.573334L187.733333 180.906667H98.986667v-34.133334h116.053333l88.746667 443.733334c6.826667 40.96 44.373333 68.266667 85.333333 68.266666h392.533333v34.133334z" fill="#2D3545" p-id="6366"></path><path d="M757.76 556.373333H286.72v-34.133333h467.626667c27.306667 0 47.786667-20.48 51.2-44.373333l34.133333 3.413333c-3.413333 40.96-40.96 75.093333-81.92 75.093333zM235.52 249.173333h238.933333v34.133334h-238.933333z" fill="#2D3545" p-id="6367"></path><path d="M713.386667 453.973333c-102.4 0-187.733333-85.333333-187.733334-187.733333s85.333333-187.733333 187.733334-187.733333 187.733333 85.333333 187.733333 187.733333-81.92 187.733333-187.733333 187.733333z m0-341.333333c-85.333333 0-153.6 68.266667-153.6 153.6s68.266667 153.6 153.6 153.6 153.6-68.266667 153.6-153.6-68.266667-153.6-153.6-153.6z" fill="#FF9A22" p-id="6368"></path><path d="M747.52 351.573333h-119.466667v-170.666666h119.466667c27.306667 0 51.2 23.893333 51.2 51.2 0 13.653333-3.413333 23.893333-13.653333 34.133333 6.826667 10.24 13.653333 20.48 13.653333 34.133333 0 27.306667-20.48 51.2-51.2 51.2z m-85.333333-34.133333h85.333333c10.24 0 17.066667-6.826667 17.066667-17.066667s-6.826667-17.066667-17.066667-17.066666h-85.333333v34.133333z m0-68.266667h85.333333c10.24 0 17.066667-6.826667 17.066667-17.066666s-6.826667-17.066667-17.066667-17.066667h-85.333333v34.133333z" fill="#FF9A22" p-id="6369"></path><path d="M662.186667 163.84h34.133333v34.133333h-34.133333zM662.186667 334.506667h34.133333v34.133333h-34.133333zM730.453333 163.84h34.133334v34.133333h-34.133334zM730.453333 334.506667h34.133334v34.133333h-34.133334z" fill="#FF9A22" p-id="6370"></path></svg>