<?xml version="1.0" standalone="no"?><!DOCTYPE svg PUBLIC "-//W3C//DTD SVG 1.1//EN" "http://www.w3.org/Graphics/SVG/1.1/DTD/svg11.dtd"><svg t="1653341672689" class="icon" viewBox="0 0 1024 1024" version="1.1" xmlns="http://www.w3.org/2000/svg" p-id="735" xmlns:xlink="http://www.w3.org/1999/xlink" width="200" height="200"><defs><style type="text/css">@font-face { font-family: feedback-iconfont; src: url("//at.alicdn.com/t/font_1031158_u69w8yhxdu.woff2?t=1630033759944") format("woff2"), url("//at.alicdn.com/t/font_1031158_u69w8yhxdu.woff?t=1630033759944") format("woff"), url("//at.alicdn.com/t/font_1031158_u69w8yhxdu.ttf?t=1630033759944") format("truetype"); }
</style></defs><path d="M512.008 81.856c-237.562 0-430.14 192.588-430.14 430.148 0 237.552 192.578 430.136 430.14 430.136 237.546 0 430.132-192.584 430.132-430.136 0-237.56-192.586-430.148-430.132-430.148z" fill="#EDF3FC" p-id="736"></path><path d="M512.008 2C230.788 2 2 230.786 2 512.004 2 793.218 230.788 1022 512.008 1022 793.222 1022 1022 793.218 1022 512.004 1022 230.786 793.222 2 512.008 2z m0 1003.662c-272.21 0-493.662-221.454-493.662-493.658C18.346 239.794 239.8 18.338 512.008 18.338c272.204 0 493.648 221.458 493.648 493.666 0 272.204-221.446 493.658-493.648 493.658z" fill="#EDF3FC" p-id="737"></path><path d="M743.162 232.11a67.68 67.68 0 0 1-49.17-49.17l-1.038-4.138-1.026 4.138a67.684 67.684 0 0 1-49.186 49.17l-4.122 1.032 4.122 1.034a67.666 67.666 0 0 1 49.186 49.17l1.026 4.13 1.038-4.13a67.658 67.658 0 0 1 49.17-49.17l4.14-1.034-4.14-1.032z" fill="#FFBE1B" p-id="738"></path><path d="M199.736 469.504a58.324 58.324 0 0 1-42.36-42.362l-0.894-3.564-0.88 3.564a58.322 58.322 0 0 1-42.372 42.362l-3.55 0.882 3.55 0.89a58.3 58.3 0 0 1 42.372 42.358l0.88 3.56 0.894-3.56a58.306 58.306 0 0 1 42.36-42.358l3.566-0.89-3.566-0.882z" fill="#5D8EF9" p-id="739"></path><path d="M620.476 208.242a43.76 43.76 0 0 1-31.796-31.798l-0.672-2.674-0.664 2.674a43.768 43.768 0 0 1-31.806 31.798l-2.666 0.668 2.666 0.666a43.76 43.76 0 0 1 31.806 31.798l0.664 2.672 0.672-2.672a43.752 43.752 0 0 1 31.796-31.798l2.678-0.666-2.678-0.668z" fill="#FFBE1B" p-id="740"></path><path d="M202.95 558.058a31.042 31.042 0 0 1-22.548-22.554l-0.474-1.896-0.472 1.896a31.048 31.048 0 0 1-22.558 22.554l-1.89 0.468 1.89 0.476a31.028 31.028 0 0 1 22.558 22.55l0.472 1.892 0.474-1.892a31.024 31.024 0 0 1 22.548-22.55l1.9-0.476-1.9-0.468z" fill="#5D8EF9" p-id="741"></path><path d="M524.126 814.328c-29.578-7.402-52.65-30.492-60.086-60.072l-1.25-5.042-1.262 5.042a82.622 82.622 0 0 1-60.084 60.072l-5.026 1.27 5.026 1.28a82.616 82.616 0 0 1 60.084 60.054l1.262 5.042 1.25-5.042c7.436-29.566 30.508-52.656 60.086-60.054l5.044-1.28-5.044-1.27z" fill="#330D84" p-id="742"></path><path d="M290.69 723.056c0.112 14.46 11.866 26.156 26.354 26.156h41.262c14.488 0 26.242-11.696 26.354-26.156h-93.97zM507.94 723.056c0.112 14.46 11.866 26.156 26.354 26.156h41.262c14.488 0 26.242-11.696 26.354-26.156H507.94z" fill="#5932AE" p-id="743"></path><path d="M679.536 394.48v-76.208c0-24.012-19.468-43.484-43.488-43.484h-370.84c-24.024 0-43.5 19.472-43.5 43.484v361.29c0 24.02 19.476 43.494 43.5 43.494h370.84c24.02 0 43.488-19.474 43.488-43.494v-24.308c-5.772-0.932-10.184-5.918-10.184-11.95v-50.132c0-6.03 4.412-11.016 10.184-11.946v-112.718a12.11 12.11 0 0 1-10.184-11.95v-50.128a12.112 12.112 0 0 1 10.184-11.95z" fill="#330D84" p-id="744"></path><path d="M604.36 313.662H296.89c-20.008 0-36.23 16.222-36.23 36.222v298.066c0 20.01 16.222 36.23 36.23 36.23H604.36c20.008 0 36.226-16.22 36.226-36.23V349.884c0-20-16.218-36.222-36.226-36.222z" fill="#5D8EF9" p-id="745"></path><path d="M589.832 449.616h-118.282c-1.464 0-2.878 0.174-4.23 0.466a73.334 73.334 0 0 1-12.738 15.242v4.668c0 7.896 7.598 14.302 16.968 14.302h118.282c9.372 0 16.968-6.406 16.968-14.302v-6.07c0-7.902-7.596-14.306-16.968-14.306z" fill="#FFCA45" p-id="746"></path><path d="M405.504 338.392c-40.29 0-72.95 32.656-72.95 72.954 0 40.29 32.66 72.948 72.95 72.948 40.292 0 72.96-32.658 72.96-72.948 0-40.298-32.668-72.954-72.96-72.954z" fill="#FFBE1B" p-id="747"></path><path d="M589.832 414.932h-111.456a72.52 72.52 0 0 1-10.532 34.33 19.942 19.942 0 0 0 3.708 0.354h118.282c9.372 0 16.968-6.404 16.968-14.306v-6.074c-0.002-7.896-7.598-14.304-16.97-14.304z" fill="#FFD45C" p-id="748"></path><path d="M589.832 380.25h-118.282l-0.04 0.004a72.616 72.616 0 0 1 6.864 34.678h111.456c9.372 0 16.968-6.404 16.968-14.302v-6.074c0.002-7.902-7.594-14.306-16.966-14.306z" fill="#FFE37B" p-id="749"></path><path d="M589.832 649.504h-118.282c-9.372 0-16.972 6.402-16.972 14.302v6.072c0 7.898 7.602 14.302 16.972 14.302h118.282c9.372 0 16.968-6.404 16.968-14.302v-6.072c0-7.9-7.596-14.302-16.968-14.302z" fill="#FFBE1B" p-id="750"></path><path d="M589.832 614.816h-118.282c-9.372 0-16.972 6.406-16.972 14.304v6.076c0 7.9 7.602 14.306 16.972 14.306h118.282c9.372 0 16.968-6.406 16.968-14.306v-6.076c0-7.898-7.596-14.304-16.968-14.304z" fill="#FFCA45" p-id="751"></path><path d="M589.832 580.134h-118.282c-9.372 0-16.972 6.402-16.972 14.302v6.076c0 7.9 7.602 14.302 16.972 14.302h118.282c9.372 0 16.968-6.402 16.968-14.302v-6.076c0-7.898-7.596-14.302-16.968-14.302z" fill="#FFE37B" p-id="752"></path><path d="M430.942 649.504H312.66c-9.372 0-16.964 6.402-16.964 14.302v6.072c0 7.898 7.594 14.302 16.964 14.302h118.282c9.376 0 16.972-6.404 16.972-14.302v-6.072c0-7.9-7.598-14.302-16.972-14.302z" fill="#FFBE1B" p-id="753"></path><path d="M430.942 614.816H312.66c-9.372 0-16.964 6.406-16.964 14.304v6.076c0 7.9 7.594 14.306 16.964 14.306h118.282c9.376 0 16.972-6.406 16.972-14.306v-6.076c0-7.898-7.598-14.304-16.972-14.304z" fill="#FFCA45" p-id="754"></path><path d="M405.504 338.392c-40.29 0-72.95 32.656-72.95 72.954 0 40.29 32.66 72.948 72.95 72.948 40.292 0 72.96-32.658 72.96-72.948 0-40.298-32.668-72.954-72.96-72.954z" fill="#FFBE1B" p-id="755"></path><path d="M405.504 356.588c-30.242 0-54.762 24.512-54.762 54.76 0 30.24 24.52 54.758 54.762 54.758 30.246 0 54.762-24.518 54.762-54.758 0-30.248-24.516-54.76-54.762-54.76z" fill="#FFE37B" p-id="756"></path><path d="M427.586 414.76c-1.954-2.252-4.574-3.734-7.864-4.444a55 55 0 0 0 1.898-0.876c0.348-0.176 0.988-0.618 1.898-1.332 2.684-2.024 4.028-5.118 4.028-9.27 0-3.45-1.192-6.536-3.574-9.27-1.316-1.468-3.278-2.632-5.89-3.5a21.23 21.23 0 0 0-2.484-0.64v-6.758h-9.32v6.11h-6.25v-6.11h-9.324v6.11h-10.204v10.028h7.602v33.062h-7.602v10.034h10.204v6.112h9.324v-6.112h6.25v6.112h9.32v-6.336c5.066-0.546 8.786-2.104 11.114-4.71 2.532-2.832 3.8-6.104 3.8-9.808 0-3.346-0.976-6.144-2.926-8.402z m-27.626-19.952h5.696c3.496 0 5.976 0.384 7.446 1.14 1.472 0.762 2.208 2.316 2.208 4.676 0 2.356-0.796 3.89-2.394 4.598-1.598 0.71-4.042 1.066-7.328 1.066h-5.626v-11.48z m15.766 31.814c-1.7 0.832-4.246 1.25-7.64 1.25h-8.126v-12.234h6.988c3.95 0 6.824 0.394 8.628 1.176 1.792 0.792 2.7 2.41 2.7 4.868 0.002 2.454-0.85 4.1-2.55 4.94z" fill="#FFFFFF" p-id="757"></path><path d="M260.66 485.328h379.926v36.65H260.66z" fill="#330D84" p-id="758"></path><path d="M690.954 394.31h-9.48a12.118 12.118 0 0 0-12.12 12.118v50.128a12.116 12.116 0 0 0 12.12 12.118h9.48a12.116 12.116 0 0 0 12.118-12.118v-50.128a12.12 12.12 0 0 0-12.118-12.118zM690.954 581.056h-9.48a12.118 12.118 0 0 0-12.12 12.116v50.132a12.12 12.12 0 0 0 12.12 12.118h9.48a12.12 12.12 0 0 0 12.118-12.118v-50.132a12.12 12.12 0 0 0-12.118-12.116z" fill="#5932AE" p-id="759"></path><path d="M783.468 301.292v-0.118l-62.208 11.75a21.836 21.836 0 0 0-17.778 21.45V665.46a21.84 21.84 0 0 0 17.778 21.454l62.208 11.75v-0.118c-4.916-0.58-8.746-4.71-8.746-9.79V311.086c0-5.076 3.83-9.214 8.746-9.794z" fill="#330D84" p-id="760"></path><path d="M792.382 301.176h-7.754a9.91 9.91 0 0 0-9.906 9.91v377.672a9.908 9.908 0 0 0 9.906 9.906h7.754a9.908 9.908 0 0 0 9.91-9.906V311.086a9.908 9.908 0 0 0-9.91-9.91z" fill="#6857E5" p-id="761"></path></svg>