<?xml version="1.0" standalone="no"?><!DOCTYPE svg PUBLIC "-//W3C//DTD SVG 1.1//EN" "http://www.w3.org/Graphics/SVG/1.1/DTD/svg11.dtd"><svg t="1653436578932" class="icon" viewBox="0 0 1024 1024" version="1.1" xmlns="http://www.w3.org/2000/svg" p-id="15973" xmlns:xlink="http://www.w3.org/1999/xlink" width="200" height="200"><defs><style type="text/css">@font-face { font-family: feedback-iconfont; src: url("//at.alicdn.com/t/font_1031158_u69w8yhxdu.woff2?t=1630033759944") format("woff2"), url("//at.alicdn.com/t/font_1031158_u69w8yhxdu.woff?t=1630033759944") format("woff"), url("//at.alicdn.com/t/font_1031158_u69w8yhxdu.ttf?t=1630033759944") format("truetype"); }
</style></defs><path d="M228.6 530.5c-45.2-18.9-73.3-43.7-73.3-64.7V326.2c31.1 20.1 73.2 36.7 122 48 48 11.1 101.4 17.1 154.4 17.1s106.4-5.9 154.4-17.1c48.8-11.3 90.9-27.9 122-48v78.1h64.5V227.5c0-49.5-37.7-91.8-109-122.1-62.1-26.5-146.7-41.7-231.8-41.7S262 78.9 199.9 105.4c-71.4 30.3-109 72.6-109 122.1v476.8c0 49.5 37.7 91.8 109 122.1 62.2 26.5 146.7 41.7 231.8 41.7h2v-64.5h-2c-77.4 0-149.6-12.3-203.1-34.6-45.2-18.9-73.3-43.7-73.3-64.7V564.7c31.1 20.2 73.2 36.7 122 48 48 11.1 101.4 17.1 154.4 17.1h2v-64.6h-2c-77.4 0-149.6-12.3-203.1-34.7z m-73.3-303c0-21 28.1-45.8 73.3-64.7 53.5-22.4 125.7-34.6 203.1-34.6s149.6 12.3 203.1 34.6c45.2 18.9 73.3 43.7 73.3 64.7s-28.1 45.8-73.3 64.7c-53.5 22.3-125.6 34.6-203.1 34.6-77.4 0-149.6-12.3-203.1-34.6-45.2-18.9-73.3-43.7-73.3-64.7z" fill="" p-id="15974"></path><path d="M702.6 420.3C551.2 420.3 472 479 472 537.1v306.4c0 58 79.2 116.8 230.6 116.8 69.5 0 128.5-12.3 170.7-35.7 37.1-20.6 58.3-48.2 59.8-77.7h0.1V537c0-58-79.2-116.7-230.6-116.7z m166.1 423.1c0 7.2-14.2 20.3-41.3 31.4-23.3 9.5-63.9 20.9-124.9 20.9S601 884.3 577.7 874.8c-27.1-11-41.3-24.2-41.3-31.4v-69.8c41.9 21.8 99.2 33.3 166.2 33.3s124.3-11.5 166.2-33.3v69.8z m0-153.1c0 7.2-14.2 20.3-41.3 31.4-23.1 9.4-63 20.7-123.2 20.9h-1.7c-61 0-101.6-11.3-124.9-20.9-27.1-11-41.3-24.2-41.3-31.4v-69.9c41.9 21.9 99.2 33.3 166.2 33.3s124.3-11.5 166.2-33.3v69.9z m-41.3-121.9c-23.3 9.5-63.9 20.9-124.9 20.9S601 577.9 577.7 568.4c-27.1-11-41.3-24.2-41.3-31.4 0-7.2 14.2-20.3 41.3-31.4 23.3-9.5 63.9-20.9 124.9-20.9s101.6 11.3 124.9 20.9c27.1 11 41.3 24.2 41.3 31.4-0.1 7.3-14.2 20.3-41.4 31.4z" fill="" p-id="15975"></path></svg>