<svg height="48" width="48" xmlns="http://www.w3.org/2000/svg"><path d="m11.1 35.25q3.15-2.2 6.25-3.375 3.1-1.175 6.65-1.175 3.55 0 6.675 1.175 3.125 1.175 6.275 3.375 2.2-2.7 3.125-5.45.925-2.75.925-5.8 0-7.25-4.875-12.125-4.875-4.875-12.125-4.875-7.25 0-12.125 4.875-4.875 4.875-4.875 12.125 0 3.05.95 5.8.95 2.75 3.15 5.45zm12.9-9.75q-2.9 0-4.875-1.975-1.975-1.975-1.975-4.875 0-2.9 1.975-4.875 1.975-1.975 4.875-1.975 2.9 0 4.875 1.975 1.975 1.975 1.975 4.875 0 2.9-1.975 4.875-1.975 1.975-4.875 1.975zm0 18.5q-4.1 0-7.75-1.575-3.65-1.575-6.375-4.3-2.725-2.725-4.3-6.375-1.575-3.65-1.575-7.75 0-4.15 1.575-7.775 1.575-3.625 4.3-6.35 2.725-2.725 6.375-4.3 3.65-1.575 7.75-1.575 4.15 0 7.775 1.575 3.625 1.575 6.35 4.3 2.725 2.725 4.3 6.35 1.575 3.625 1.575 7.775 0 4.1-1.575 7.75-1.575 3.65-4.3 6.375-2.725 2.725-6.35 4.3-3.625 1.575-7.775 1.575zm0-3q2.75 0 5.375-.8 2.625-.8 5.175-2.8-2.55-1.8-5.2-2.75-2.65-.95-5.35-.95-2.7 0-5.35.95-2.65.95-5.2 2.75 2.55 2 5.175 2.8 2.625.8 5.375.8zm0-18.5q1.7 0 2.775-1.075 1.075-1.075 1.075-2.775 0-1.7-1.075-2.775-1.075-1.075-2.775-1.075-1.7 0-2.775 1.075-1.075 1.075-1.075 2.775 0 1.7 1.075 2.775 1.075 1.075 2.775 1.075zm0-3.85q0 0 0 0zm0 18.7q0 0 0 0z"/></svg>