<svg height="200" viewBox="0 0 1024 1024" width="200" xmlns="http://www.w3.org/2000/svg"><path d="m192.032 631.403v-226.678c0-176.394 143.253-319.392 319.968-319.392s319.968 142.998 319.968 319.392v226.678l60.608 121.013c10.645 21.237-4.832 46.219-28.619 46.219h-703.914c-23.787 0-39.254-24.982-28.619-46.219zm620.16 103.36-40.843-81.536a31.893 31.893 0 0 1 -3.381-14.283v-234.219c0-141.12-114.603-255.509-255.968-255.509s-255.968 114.39-255.968 255.51v234.207a32.01 32.01 0 0 1 -3.381 14.294l-40.843 81.525h600.384zm-443.307 152.32a31.893 31.893 0 0 1 -4.149-44.982 32.032 32.032 0 0 1 45.056-4.138 159.36 159.36 0 0 0 102.208 36.81 159.36 159.36 0 0 0 102.187-36.8 32.032 32.032 0 0 1 45.056 4.139 31.893 31.893 0 0 1 -4.16 44.981 223.403 223.403 0 0 1 -143.083 51.574c-52.981 0-103.2-18.454-143.115-51.595z"/></svg>