<svg id="图层_1" data-name="图层 1" xmlns="http://www.w3.org/2000/svg" viewBox="0 0 512 512"><defs><style>.cls-1{fill:#ffc000;}</style></defs><rect class="cls-1" width="512" height="512"/><path d="M226,130.78q2.78,2.79,2.78,9.31v80.79a68,68,0,0,1,22.64-16.79,66.4,66.4,0,0,1,27.83-5.85q25.14,0,43.95,12.28A79.65,79.65,0,0,1,352,243.91q10,21.12,10,47.21t-10,47.21a79.65,79.65,0,0,1-28.78,33.39Q304.36,384,279.22,384a65.83,65.83,0,0,1-33.2-8.54,72.19,72.19,0,0,1-25-23.89v16.12q0,6.53-2.78,9.31T209,379.78H166a13,13,0,0,1-7.1-1.63q-2.51-1.63-3.75-5.86T153.91,360q0-8.06,1.24-12.28T158.9,342a13.64,13.64,0,0,1,7.1-1.53h14.77V167.34H162.16a13.64,13.64,0,0,1-7.1-1.53c-1.67-1-2.91-2.95-3.74-5.76s-1.25-6.91-1.25-12.28.41-9.47,1.25-12.29,2.07-4.76,3.74-5.85a13,13,0,0,1,7.1-1.63h54.5Q223.19,128,226,130.78Zm23.31,116.78a41.31,41.31,0,0,0-15.92,17q-6,11.22-6,26.58t6,26.58a41.37,41.37,0,0,0,15.92,17,43.7,43.7,0,0,0,22.26,5.76,35.81,35.81,0,0,0,20.73-6.05,38.23,38.23,0,0,0,13.53-17.17q4.69-11.13,4.7-26.1T305.8,265a38.26,38.26,0,0,0-13.53-17.18,35.81,35.81,0,0,0-20.73-6A43.7,43.7,0,0,0,249.28,247.56Z"/></svg>