<?xml version="1.0" standalone="no"?><!DOCTYPE svg PUBLIC "-//W3C//DTD SVG 1.1//EN" "http://www.w3.org/Graphics/SVG/1.1/DTD/svg11.dtd"><svg t="1653433901128" class="icon" viewBox="0 0 1024 1024" version="1.1" xmlns="http://www.w3.org/2000/svg" p-id="1309" xmlns:xlink="http://www.w3.org/1999/xlink" width="200" height="200"><defs><style type="text/css">@font-face { font-family: feedback-iconfont; src: url("//at.alicdn.com/t/font_1031158_u69w8yhxdu.woff2?t=1630033759944") format("woff2"), url("//at.alicdn.com/t/font_1031158_u69w8yhxdu.woff?t=1630033759944") format("woff"), url("//at.alicdn.com/t/font_1031158_u69w8yhxdu.ttf?t=1630033759944") format("truetype"); }
</style></defs><path d="M959.104 852.673v0.005c0 58.886-47.734 106.62-106.615 106.62l-0.005 0.006H170.09c-0.005 0-0.005-0.006-0.01-0.006-58.88 0-106.615-47.734-106.615-106.624V212.932c0-47.108 38.189-85.297 85.303-85.297h344.83l87.397-62.575c10.956-3.976 23.066 1.656 27.052 12.573l18.181 50h162.287c47.104 0 85.293 38.19 85.293 85.303v63.972h0.005c47.108 0 85.297 38.188 85.297 85.301l-0.006 490.464z m-810.336-682.39h-0.005c-23.555 0-42.65 40.42-42.65 63.975s19.095 42.65 42.655 42.65h30.817-21.326 4.039c0.274-0.113 0.45-0.343 0.733-0.45l255.506-106.175h-269.77z m449.475 3.85l-22.64-62.354-0.03 21.336-0.005-0.005-75.954 37.173h-0.19L264.008 276.91h385.173l-50.938-102.776z m232.92 38.804c0-23.559-19.1-42.654-42.649-42.654H641.737l52.335 106.625h137.091v-63.971z m42.649 106.625H148.768c-0.01 0-0.01-0.01-0.016-0.01-15.616 0-30.05-4.503-42.639-11.826v544.952c0 35.332 28.646 63.97 63.977 63.97h682.39c35.337 0 63.975-28.64 63.975-63.97V703.4h-85.298c-47.108 0-85.297-38.183-85.297-85.297 0-47.104 38.189-85.298 85.297-85.298h85.298V362.209c0-23.557-19.094-42.647-42.643-42.647z m42.643 341.19v-85.298h-85.298c-23.554 0-42.648 19.094-42.648 42.649 0 23.56 19.094 42.649 42.648 42.649h85.298z m-85.298-63.975h42.65v42.648h-42.65v-42.648z m0 0" fill="" p-id="1310"></path></svg>