<svg enable-background="new 0 0 512 512" viewBox="0 0 512 512" xmlns="http://www.w3.org/2000/svg"><path d="m502.5 170.6-217-142.3c-18.1-11.7-41.3-11.7-59.3 0l-216.9 142.3c-8.4 5.5-10.8 16.7-5.4 25.2 0 0 .1.1.1.1 5.4 8.5 16.7 11 25.1 5.6.1 0 .1-.1.2-.1l62.8-41.5v275.4c-1.5 30.1 21.6 55.8 51.7 57.3h.1 223.9c30.1-1.5 53.3-27.1 51.9-57.2v-.1-275.5l62.8 41.5c2.9 2.1 6.4 3.1 10 3.1 6.2 0 11.9-3.1 15.3-8.2 5.7-8.3 3.6-19.6-4.7-25.3-.2-.1-.4-.2-.6-.3zm-119.2 264.6c0 11.5-7.1 20.9-15.5 20.9h-223.8c-8.4 0-15.5-9.5-15.5-20.9v-299.2l117.6-77.4c6-3.8 13.7-3.8 19.7 0l117.5 77.4z" fill="#b5b5b6"/></svg>