<svg enable-background="new 0 0 512 512" viewBox="0 0 512 512" xmlns="http://www.w3.org/2000/svg"><path d="m-9.6-3.1h510v510h-510z" fill="none"/><g fill="#b5b5b6"><path d="m266.6 5.1c-140.8 0-255 114.2-255 255s114.2 255 255 255 255-114.2 255-255-114.1-255-255-255zm0 480c-124.3 0-225-100.7-225-225s100.7-225 225-225 225 100.7 225 225-100.7 225-225 225z"/><path d="m132.3 281.8 128.2 128.2c5.6 5.6 14.7 5.6 20.3 0l128.2-128.2c5.6-5.6 5.6-14.7 0-20.3l-128.2-128.2c-5.6-5.6-14.7-5.6-20.3 0l-128.2 128.2c-5.6 5.6-5.6 14.7 0 20.3zm234.2 0-85.7 85.7c-5.6 5.6-14.7 5.6-20.3 0l-85.7-85.7c-5.6-5.6-5.6-14.7 0-20.3l85.7-85.7c5.6-5.6 14.7-5.6 20.3 0l85.7 85.7c5.6 5.6 5.6 14.7 0 20.3z"/></g></svg>