<?xml version="1.0" standalone="no"?><!DOCTYPE svg PUBLIC "-//W3C//DTD SVG 1.1//EN" "http://www.w3.org/Graphics/SVG/1.1/DTD/svg11.dtd"><svg t="1651140623488" class="icon" viewBox="0 0 1024 1024" version="1.1" xmlns="http://www.w3.org/2000/svg" p-id="1000" xmlns:xlink="http://www.w3.org/1999/xlink" width="200" height="200"><defs><style type="text/css">@font-face { font-family: feedback-iconfont; src: url("//at.alicdn.com/t/font_1031158_u69w8yhxdu.woff2?t=1630033759944") format("woff2"), url("//at.alicdn.com/t/font_1031158_u69w8yhxdu.woff?t=1630033759944") format("woff"), url("//at.alicdn.com/t/font_1031158_u69w8yhxdu.ttf?t=1630033759944") format("truetype"); }
</style></defs><path d="M752 808H272c-44.112 0-80-35.888-80-80V408c0-44.112 35.888-80 80-80h480c44.112 0 80 35.888 80 80v320c0 44.112-35.888 80-80 80zM272 388c-11.028 0-20 8.972-20 20v320c0 11.028 8.972 20 20 20h480c11.028 0 20-8.972 20-20V408c0-11.028-8.972-20-20-20H272z" fill="#4988FD" p-id="1001"></path><path d="M225 459h586v60h-586z" fill="#4988FD" p-id="1002"></path><path d="M672 678h-100c-16.568 0-30-13.432-30-30s13.432-30 30-30h100c16.568 0 30 13.432 30 30s-13.432 30-30 30z" fill="#FF4B07" p-id="1003"></path><path d="M750.424 383.632c-2.904 0-5.858-0.424-8.782-1.318l-384.844-117.66c-19.544-5.982-40.314 5.064-46.29 24.614l-0.162 0.508-23.786 73.126c-5.126 15.754-22.052 24.374-37.808 19.25-15.756-5.126-24.374-22.052-19.25-37.808l23.71-72.894c15.758-51.018 70.028-79.796 121.126-64.174l384.844 117.66c15.844 4.844 24.762 21.616 19.918 37.46-3.948 12.922-15.832 21.236-28.676 21.236z" fill="#4988FD" p-id="1004"></path></svg>