<?xml version="1.0" standalone="no"?><!DOCTYPE svg PUBLIC "-//W3C//DTD SVG 1.1//EN" "http://www.w3.org/Graphics/SVG/1.1/DTD/svg11.dtd"><svg t="1652704073445" class="icon" viewBox="0 0 1024 1024" version="1.1" xmlns="http://www.w3.org/2000/svg" p-id="1320" xmlns:xlink="http://www.w3.org/1999/xlink" width="200" height="200"><defs><style type="text/css">@font-face { font-family: feedback-iconfont; src: url("//at.alicdn.com/t/font_1031158_u69w8yhxdu.woff2?t=1630033759944") format("woff2"), url("//at.alicdn.com/t/font_1031158_u69w8yhxdu.woff?t=1630033759944") format("woff"), url("//at.alicdn.com/t/font_1031158_u69w8yhxdu.ttf?t=1630033759944") format("truetype"); }
</style></defs><path d="M988.968421 231.747368c0-78.147368-156.294737-121.263158-301.810526-121.263157S382.652632 153.6 382.652632 231.747368v53.894737c0 10.778947 8.084211 18.863158 18.863157 18.863158 8.084211 0 16.168421-5.389474 18.863158-13.473684 53.894737 40.421053 161.684211 61.978947 266.778948 61.978947 102.4 0 210.189474-21.557895 264.08421-59.28421v35.031579c0 35.031579-99.705263 83.536842-264.08421 83.536842-24.252632 0-48.505263 0-72.757895-2.694737-10.778947 0-18.863158 5.389474-21.557895 16.168421 0 10.778947 5.389474 18.863158 16.168421 21.557895 24.252632 2.694737 51.2 2.694737 75.452632 2.694737 102.4 0 210.189474-21.557895 264.08421-59.284211v37.726316c0 35.031579-99.705263 83.536842-264.08421 83.536842h-18.863158c-10.778947 0-18.863158 8.084211-18.863158 18.863158 0 10.778947 8.084211 18.863158 18.863158 18.863158h18.863158c102.4 0 210.189474-21.557895 264.08421-59.284211v37.726316c0 35.031579-99.705263 83.536842-264.08421 83.536842-10.778947 0-18.863158 8.084211-18.863158 18.863158s8.084211 18.863158 18.863158 18.863158c102.4 0 210.189474-21.557895 264.08421-59.284211v37.726316c0 35.031579-99.705263 83.536842-264.08421 83.536842h-16.168421c-10.778947 0-18.863158 8.084211-18.863158 18.863158 0 10.778947 8.084211 18.863158 18.863158 18.863158h16.168421c102.4 0 210.189474-21.557895 264.08421-59.28421V727.578947c0 35.031579-99.705263 83.536842-264.08421 83.536842-16.168421 0-32.336842 0-48.505263-2.694736-10.778947 0-18.863158 8.084211-18.863158 18.863158 0 10.778947 8.084211 18.863158 18.863158 18.863157 16.168421 0 35.031579 2.694737 51.2 2.694737 145.515789 0 301.810526-43.115789 301.810526-121.263158v-97.010526-99.705263V431.157895v-99.705263-99.705264z m-301.810526 83.536843c-164.378947 0-264.084211-48.505263-264.084211-83.536843s99.705263-83.536842 264.084211-83.536842c164.378947 0 264.084211 48.505263 264.08421 83.536842s-99.705263 83.536842-264.08421 83.536843z" p-id="1321"></path><path d="M328.757895 328.757895C167.073684 328.757895 35.031579 458.105263 35.031579 619.789474c0 161.684211 132.042105 293.726316 293.726316 293.726315S619.789474 781.473684 619.789474 619.789474s-129.347368-291.031579-291.031579-291.031579z m0 547.031579c-140.126316 0-256-113.178947-256-256 0-140.126316 113.178947-256 256-256s256 113.178947 256 256c-2.694737 142.821053-115.873684 256-256 256z" p-id="1322"></path><path d="M363.789474 490.442105h-16.168421v-26.947368c0-10.778947-8.084211-18.863158-18.863158-18.863158s-18.863158 8.084211-18.863158 18.863158v26.947368h-16.168421c-24.252632 0-45.810526 18.863158-45.810527 45.810527V565.894737c0 35.031579 35.031579 61.978947 80.842106 61.978947 24.252632 0 40.421053 13.473684 40.421052 24.252632v53.894737c0 2.694737-2.694737 8.084211-8.08421 8.08421h-70.063158c-2.694737 0-8.084211-2.694737-8.084211-8.08421V673.684211c0-10.778947-8.084211-18.863158-18.863157-18.863158s-16.168421 8.084211-16.168422 18.863158v32.336842c0 24.252632 18.863158 45.810526 45.810527 45.810526h16.168421v26.947368c0 10.778947 8.084211 18.863158 18.863158 18.863158s18.863158-8.084211 18.863158-18.863158v-26.947368h16.168421c24.252632 0 45.810526-21.557895 45.810526-45.810526v-53.894737c0-35.031579-35.031579-61.978947-80.842105-61.978948-24.252632 0-40.421053-13.473684-40.421053-24.252631v-32.336842c0-2.694737 2.694737-8.084211 8.084211-8.084211h70.063158c2.694737 0 8.084211 2.694737 8.08421 8.084211V565.894737c0 10.778947 8.084211 18.863158 18.863158 18.863158s18.863158-8.084211 18.863158-18.863158v-32.336842c-5.389474-21.557895-24.252632-43.115789-48.505263-43.11579z" p-id="1323"></path></svg>