<svg fill="none" height="15" viewBox="0 0 15 15" width="15" xmlns="http://www.w3.org/2000/svg"><path clip-rule="evenodd" d="m2.5 1c-.82843 0-1.5.67157-1.5 1.5v2.5h-1v-2.5c0-1.38071 1.11929-2.5 2.5-2.5h2.5v1zm10 0h-2.5v-1h2.5c1.3807 0 2.5 1.11929 2.5 2.5v2.5h-1v-2.5c0-.82843-.6716-1.5-1.5-1.5zm.5 7h-11v-1h11zm-13 4.5v-2.5h1v2.5c0 .8284.67157 1.5 1.5 1.5h2.5v1h-2.5c-1.38071 0-2.5-1.1193-2.5-2.5zm14 0v-2.5h1v2.5c0 1.3807-1.1193 2.5-2.5 2.5h-2.5v-1h2.5c.8284 0 1.5-.6716 1.5-1.5z" fill="#000" fill-rule="evenodd"/></svg>