<svg xmlns="http://www.w3.org/2000/svg" width="16" height="16"><g fill="none" fill-rule="evenodd"><path d="M0 0h16v16H0z"/><g stroke="#F3F8F7" stroke-linecap="round" stroke-linejoin="round"><path d="M12.667 12.653 14 11.32l-1.333-1.334M6.788 6 5.735 4.552a1.338 1.338 0 0 0-1.084-.55L2 4.015m10.667 1.32L14 4l-1.333-1.333"/><path d="m9.212 9.334 1.053 1.448c.252.346.656.55 1.084.549L14 11.32m0-7.306-2.65-.011a1.332 1.332 0 0 0-1.085.55l-4.53 6.229c-.252.346-.656.55-1.084.549L2 11.32"/></g></g></svg>