<?xml version="1.0" standalone="no"?><!DOCTYPE svg PUBLIC "-//W3C//DTD SVG 1.1//EN" "http://www.w3.org/Graphics/SVG/1.1/DTD/svg11.dtd"><svg t="1665566498511" class="icon" viewBox="0 0 1024 1024" version="1.1" xmlns="http://www.w3.org/2000/svg" p-id="4273" xmlns:xlink="http://www.w3.org/1999/xlink" width="200" height="200"><path d="M748.650667 804.053333A362.901333 362.901333 0 0 0 533.333333 149.333333h-42.666666a362.773333 362.773333 0 0 0-12.8 725.333334h302.933333a26.304 26.304 0 0 0 17.066667-8.533334 23.061333 23.061333 0 0 0-4.266667-29.866666z m-162.133334-136.938666h-213.333333a49.685333 49.685333 0 0 1-49.066667-49.216 48.341333 48.341333 0 0 1 49.066667-49.216h213.333333a49.216 49.216 0 0 1 0 98.432z m64-192.576h-277.333333a49.685333 49.685333 0 0 1-49.066667-49.216 48.341333 48.341333 0 0 1 49.066667-49.216h277.333333a49.216 49.216 0 0 1 0 98.432z" p-id="4274" fill="#dbdbdb"></path></svg>