<svg height="48" width="48" xmlns="http://www.w3.org/2000/svg"><path d="m32.6 27.2q1.25 0 2.225-.975.975-.975.975-2.275 0-1.25-.975-2.2-.975-.95-2.225-.95-1.25 0-2.225.95-.975.95-.975 2.2 0 1.3.975 2.275.975.975 2.225.975zm-23.6 9.15q0 0 0 1.325 0 1.325 0 1.325v-30q0 0 0 0 0 0 0 1.35 0 1.35 0 1.35 0 0 0 1.9 0 1.9 0 4.75v11.35q0 2.85 0 4.75 0 1.9 0 1.9zm0 5.65q-1.15 0-2.075-.9-.925-.9-.925-2.1v-30q0-1.15.925-2.075.925-.925 2.075-.925h30q1.2 0 2.1.925.9.925.9 2.075v6.7h-3v-6.7q0 0 0 0h-30q0 0 0 0v30q0 0 0 0h30q0 0 0 0v-6.65h3v6.65q0 1.2-.9 2.1-.9.9-2.1.9zm17.9-8.65q-1.7 0-2.7-1-1-1-1-2.65v-11.35q0-1.7 1-2.675 1-.975 2.7-.975h13.5q1.7 0 2.7.975 1 .975 1 2.675v11.35q0 1.65-1 2.65-1 1-2.7 1zm14.2-3q0 0 0 0v-12.65q0 0 0 0h-14.9q0 0 0 0v12.65q0 0 0 0z"/></svg>