<?xml version="1.0" standalone="no"?><!DOCTYPE svg PUBLIC "-//W3C//DTD SVG 1.1//EN" "http://www.w3.org/Graphics/SVG/1.1/DTD/svg11.dtd"><svg t="1652034089062" class="icon" viewBox="0 0 1024 1024" version="1.1" xmlns="http://www.w3.org/2000/svg" p-id="1402" xmlns:xlink="http://www.w3.org/1999/xlink" width="200" height="200"><defs><style type="text/css">@font-face { font-family: feedback-iconfont; src: url("//at.alicdn.com/t/font_1031158_u69w8yhxdu.woff2?t=1630033759944") format("woff2"), url("//at.alicdn.com/t/font_1031158_u69w8yhxdu.woff?t=1630033759944") format("woff"), url("//at.alicdn.com/t/font_1031158_u69w8yhxdu.ttf?t=1630033759944") format("truetype"); }
</style></defs><path d="M512 1024c282.773333 0 512-229.226667 512-512S794.773333 0 512 0 0 229.226667 0 512s229.226667 512 512 512z" fill="#F7931A" p-id="1403"></path><path d="M482.005333 175.701333l55.296 13.781334-22.229333 89.066666c14.848 3.392 29.781333 6.805333 44.330667 10.432l22.058666-88.490666 55.296 13.802666-22.656 90.858667c69.845333 24.064 120.917333 60.117333 110.890667 127.189333-7.274667 49.109333-34.496 72.874667-70.634667 81.216 49.621333 25.834667 74.88 65.450667 50.837334 134.144-29.866667 85.312-100.778667 92.501333-195.114667 74.666667l-22.890667 91.733333-55.296-13.781333 22.592-90.517333a2138.026667 2138.026667 0 0 1-44.096-11.434667l-22.656 90.922667-55.253333-13.781334 22.890667-91.904a3414.4 3414.4 0 0 1-15.573334-4.032c-7.872-2.048-15.829333-4.138667-23.850666-6.144l-71.978667-17.941333 27.456-63.317333s40.746667 10.837333 40.192 10.026666c15.658667 3.882667 22.613333-6.314667 25.344-13.12l36.181333-145.024 3.968 0.981334 1.877334 0.469333a44.224 44.224 0 0 0-5.76-1.834667l25.813333-103.530666c0.682667-11.754667-3.370667-26.581333-25.770667-32.170667 0.853333-0.576-40.170667-9.984-40.170666-9.984l14.72-59.072 76.266666 19.050667-0.064 0.277333c11.477333 2.858667 23.296 5.568 35.328 8.298667l22.656-90.837334z m-23.253333 334.336l-30.378667 121.770667c3.093333 0.768 6.72 1.728 10.773334 2.794667l2.944 0.789333c46.357333 12.202667 141.184 35.84 156.522666-25.834667 16.064-64.426667-79.594667-85.888-126.272-96.362666l-3.797333-0.853334a364.394667 364.394667 0 0 1-9.792-2.304z m41.429333-166.165333l-27.541333 110.442667 2.752 0.704 6.314667 1.664c37.632 10.048 119.722667 31.957333 134.016-25.322667 14.592-58.581333-65.173333-76.245333-104.128-84.864-4.394667-0.981333-8.256-1.834667-11.413334-2.624z" fill="#FFFFFF" p-id="1404"></path></svg>