<svg viewBox="0 0 512 512" xmlns="http://www.w3.org/2000/svg"><g fill="#ffc000"><path d="m443.37 0h-374.74a68.63 68.63 0 0 0 -68.63 68.63v374.74a68.63 68.63 0 0 0 68.63 68.63h374.74a68.63 68.63 0 0 0 68.63-68.63v-374.74a68.63 68.63 0 0 0 -68.63-68.63zm-43.14 379.75q-15 31.74-43.27 50.19t-66.06 18.46q-27.4 0-49.9-12.83a106.49 106.49 0 0 1 -31.19-27.08 3.56 3.56 0 0 0 -6.31 2.27v13.12q0 9.81-4.18 14t-14 4.19h-64.61c-4.61 0-8.18-.82-10.67-2.46s-4.38-4.56-5.62-8.79-1.88-10.39-1.88-18.46.62-14.23 1.88-18.47 3.12-7.11 5.62-8.65 6.06-2.31 10.67-2.31h18.65a3.56 3.56 0 0 0 3.56-3.56v-253.08a3.56 3.56 0 0 0 -3.56-3.56h-24.42c-4.61 0-8.17-.76-10.67-2.31s-4.38-4.42-5.62-8.65-1.88-10.39-1.88-18.46.62-14.23 1.88-18.46 3.12-7.17 5.62-8.8 6.06-2.45 10.67-2.45h81.93q9.8 0 14 4.18t4.18 14v112.68a3.54 3.54 0 0 0 6 2.53 101.27 101.27 0 0 1 28-19 99.79 99.79 0 0 1 41.82-8.8q37.8 0 66.06 18.46t43.27 50.2q15 31.72 15 71t-14.97 70.9z"/><path d="m310.52 243.74q-13.27-9.09-31.15-9.09a65.77 65.77 0 0 0 -33.47 8.66q-15 8.69-23.9 25.52t-8.94 40q0 23.08 8.94 39.95t23.94 25.53a65.76 65.76 0 0 0 33.47 8.65q17.88 0 31.15-9.09t20.3-25.87q7.06-16.72 7.06-39.23t-7.06-39.23q-7.08-16.7-20.34-25.8z"/></g></svg>