<?xml version="1.0" standalone="no"?><!DOCTYPE svg PUBLIC "-//W3C//DTD SVG 1.1//EN" "http://www.w3.org/Graphics/SVG/1.1/DTD/svg11.dtd"><svg t="1652706064544" class="icon" viewBox="0 0 1024 1024" version="1.1" xmlns="http://www.w3.org/2000/svg" p-id="17339" xmlns:xlink="http://www.w3.org/1999/xlink" width="200" height="200"><defs><style type="text/css">@font-face { font-family: feedback-iconfont; src: url("//at.alicdn.com/t/font_1031158_u69w8yhxdu.woff2?t=1630033759944") format("woff2"), url("//at.alicdn.com/t/font_1031158_u69w8yhxdu.woff?t=1630033759944") format("woff"), url("//at.alicdn.com/t/font_1031158_u69w8yhxdu.ttf?t=1630033759944") format("truetype"); }
</style></defs><path d="M832 128 192 128C153.6 128 128 153.6 128 192l0 448c0 38.4 25.6 64 64 64l640 0c38.4 0 64-25.6 64-64L896 192C896 153.6 870.4 128 832 128zM864 614.4c0 32-25.6 57.6-57.6 57.6L217.6 672c-32 0-57.6-25.6-57.6-57.6L160 217.6c0-32 25.6-57.6 57.6-57.6l588.8 0c32 0 57.6 25.6 57.6 57.6L864 614.4z" p-id="17340"></path><path d="M640 832 608 832l0-128-192 0 0 128L384 832c-19.2 0-32 12.8-32 32C352 883.2 364.8 896 384 896l32 0 192 0L640 896c19.2 0 32-12.8 32-32C672 844.8 659.2 832 640 832z" p-id="17341"></path><path d="M736 268.8c-19.2 0-32 12.8-32 32 0 6.4 0 6.4 0 12.8L595.2 473.6c0 0 0 0-6.4 0-6.4 0-6.4 0-12.8 0L448 352c0 0 0-6.4 0-6.4 0-19.2-12.8-32-32-32C403.2 313.6 384 326.4 384 345.6c0 6.4 0 6.4 0 12.8L288 499.2c0 0 0 0 0 0C268.8 499.2 256 512 256 531.2c0 19.2 12.8 32 32 32S320 544 320 531.2c0-6.4 0-6.4 0-12.8l96-140.8c0 0 6.4 0 6.4 0 6.4 0 6.4 0 6.4 0l134.4 128c0 0 0 6.4 0 6.4 0 19.2 12.8 32 32 32s32-12.8 32-32c0-6.4 0-6.4 0-12.8l108.8-160c0 0 0 0 0 0C755.2 332.8 768 320 768 300.8 768 288 755.2 268.8 736 268.8z" p-id="17342"></path></svg>