<?xml version="1.0" standalone="no"?><!DOCTYPE svg PUBLIC "-//W3C//DTD SVG 1.1//EN" "http://www.w3.org/Graphics/SVG/1.1/DTD/svg11.dtd"><svg t="1665979676587" class="icon" viewBox="0 0 1024 1024" version="1.1" xmlns="http://www.w3.org/2000/svg" p-id="4806" xmlns:xlink="http://www.w3.org/1999/xlink" width="200" height="200"><path d="M512 192l352 137.6v48h-44.8c-3.2 16-19.2 22.4-48 22.4H249.6c-28.8 0-44.8-6.4-44.8-22.4H160v-48L512 192zM192 764.8h640c16 0 32 12.8 32 32V832H160v-38.4c0-16 12.8-28.8 32-28.8z m16-25.6v-25.6c0-9.6 9.6-19.2 25.6-19.2h19.2v-272h92.8v272h48v-272h92.8v272h44.8v-272h96v272h48v-272H768v272h19.2c16 0 25.6 6.4 28.8 19.2v25.6h-608z" p-id="4807"></path></svg>