<svg viewBox="0 0 512 512" xmlns="http://www.w3.org/2000/svg"><g fill="#b5b5b6"><path d="m256 1c-140.83 0-255 114.17-255 255s114.17 255 255 255 255-114.17 255-255-114.17-255-255-255zm0 480c-124.26 0-225-100.74-225-225s100.74-225 225-225 225 100.74 225 225-100.74 225-225 225z"/><path d="m291.17 110.08a13.32 13.32 0 0 0 -.32-1.39c-.05-.2-.13-.39-.19-.59s-.15-.49-.25-.73-.19-.45-.29-.67-.18-.41-.28-.61-.23-.42-.35-.63-.22-.4-.34-.59-.26-.38-.4-.57-.27-.39-.42-.58-.29-.34-.43-.51l-.48-.55-.56-.53-.46-.43a13.42 13.42 0 0 0 -1.12-.87 13.24 13.24 0 0 0 -1.19-.75c-.19-.11-.38-.19-.57-.29l-.69-.34c-.22-.1-.45-.18-.68-.26s-.41-.17-.63-.24l-.69-.19c-.22-.06-.44-.13-.66-.18s-.45-.08-.67-.12l-.72-.12h-.66l-.73-.05h-.77-.63q-.71.06-1.41.18l-49.85 8.79a14.32 14.32 0 1 0 5 28.2l15.81-2.79-144.45 206.25a14.32 14.32 0 0 0 23.46 16.43l144.45-206.26 2.79 15.81a14.32 14.32 0 0 0 28.2-5z"/><path d="m220.83 401.41a13.13 13.13 0 0 0 .32 1.38c0 .21.13.4.19.6s.15.49.25.73.19.45.29.67.18.41.28.61.23.42.35.63.22.4.34.59.26.38.4.56.27.4.42.59l.43.51.48.54c.18.19.37.36.56.53s.3.3.46.44c.36.3.73.6 1.12.87a13.24 13.24 0 0 0 1.19.75l.57.29c.23.11.45.23.69.33s.45.18.68.27.41.17.63.23.46.14.69.2l.66.18c.22 0 .45.08.67.12l.72.11c.22 0 .44 0 .66.05s.49.05.73.05.52 0 .77 0 .42 0 .63 0a13.55 13.55 0 0 0 1.41-.17l49.85-8.79a14.32 14.32 0 1 0 -5-28.2l-15.81 2.78 144.45-206.29a14.32 14.32 0 1 0 -23.46-16.43l-144.45 206.26-2.79-15.81a14.32 14.32 0 1 0 -28.2 5z"/></g></svg>