<svg viewBox="0 0 512 512" xmlns="http://www.w3.org/2000/svg"><g fill="#b5b5b6"><path d="m255.93 74.24a95.38 95.38 0 1 0 95.48 95.38v-.1a95.38 95.38 0 0 0 -95.48-95.28zm64.44 95.59a64.35 64.35 0 1 1 0-.21z"/><path d="m511 255.87c-.07-140.87-114.3-254.94-255.13-254.87s-254.94 114.3-254.87 255.13c.07 137.25 108.57 249.1 244.45 254.64 1.71.07 3.42.13 5.14.16s3.69.07 5.54.07a255.29 255.29 0 0 0 157.66-54.52 15.35 15.35 0 0 0 1.51-1.39 255 255 0 0 0 95.7-199.22zm-387.17 180.56a132.41 132.41 0 0 1 264.61.07c-77.05 56.5-184.39 58.77-264.61-.07zm293.26-25a163.48 163.48 0 0 0 -321.73.12 223.78 223.78 0 0 1 -62.98-155.55c0-123.58 100.17-223.76 223.75-223.77 123.57.18 223.69 100.31 223.87 223.87a224.16 224.16 0 0 1 -62.9 155.37z"/></g></svg>