<?xml version="1.0" standalone="no"?><!DOCTYPE svg PUBLIC "-//W3C//DTD SVG 1.1//EN" "http://www.w3.org/Graphics/SVG/1.1/DTD/svg11.dtd"><svg t="1665979912235" class="icon" viewBox="0 0 1024 1024" version="1.1" xmlns="http://www.w3.org/2000/svg" p-id="12539" xmlns:xlink="http://www.w3.org/1999/xlink" width="200" height="200"><path d="M277.333333 85.333333v29.866667A98.133333 98.133333 0 0 0 375.466667 213.333333h273.066666a98.133333 98.133333 0 0 0 98.133334-98.133333V85.333333h42.666666a85.333333 85.333333 0 0 1 85.333334 85.333334v682.666666a85.333333 85.333333 0 0 1-85.333334 85.333334h-554.666666a85.333333 85.333333 0 0 1-85.333334-85.333334V170.666667a85.333333 85.333333 0 0 1 85.333334-85.333334h42.666666z m355.242667 310.186667l-3.669333 3.882667-162.730667 195.84-75.306667-88.405334-3.712-3.84a42.666667 42.666667 0 0 0-64.426666 54.912l3.2 4.266667 108.202666 127.061333 3.626667 3.754667a42.666667 42.666667 0 0 0 58.112-0.384l3.584-3.797333 195.072-234.88 3.157333-4.352a42.666667 42.666667 0 0 0-65.109333-54.058667zM648.533333 42.666667a34.133333 34.133333 0 0 1 34.133334 34.133333v38.4a34.133333 34.133333 0 0 1-34.133334 34.133333H375.466667a34.133333 34.133333 0 0 1-34.133334-34.133333v-38.4a34.133333 34.133333 0 0 1 34.133334-34.133333h273.066666z" p-id="12540"></path></svg>