<svg viewBox="0 0 32 32" xmlns="http://www.w3.org/2000/svg"><g fill-rule="evenodd"><path d="m34.4433 18.8309-6.0588 6.0811c-.5133.5152-.5128 1.3527.001 1.8672l4.63 4.6366c.7891.7789 2.0791.7789 2.8682 0l14.191-14.0065c.7891-.7788.7891-2.0522 0-2.831l-14.191-13.994178c-.7891-.778829-2.0791-.778829-2.8682 0l-4.63 4.636658c-.5138.51457-.5143 1.35203-.001 1.86717l6.0588 6.08115c1.5782 1.5576 1.5782 4.1042 0 5.6618z" fill="#0a6e5c"/><g fill="#21bf73"><path d="m16.2232 18.8309 6.0588 6.0811c.5133.5152.5128 1.3527-.001 1.8672l-4.63 4.6366c-.7891.7789-2.0791.7789-2.8682 0l-14.190988-14.0065c-.789083-.7788-.789083-2.0522 0-2.831l14.190988-13.994178c.7891-.778829 2.0791-.778829 2.8682 0l4.63 4.636658c.5138.51457.5143 1.35203.001 1.86717l-6.0588 6.08115c-1.5782 1.5576-1.5782 4.1042 0 5.6618z"/><path d="m17.8128 17.157c-.6391-.639-.6391-1.675 0-2.314l6.3637-6.36374c.639-.63901 1.675-.63901 2.314 0l6.3637 6.36374c.639.639.639 1.675 0 2.314l-6.3637 6.3637c-.639.6391-1.675.6391-2.314 0z"/></g></g></svg>