<?xml version="1.0" standalone="no"?><!DOCTYPE svg PUBLIC "-//W3C//DTD SVG 1.1//EN" "http://www.w3.org/Graphics/SVG/1.1/DTD/svg11.dtd"><svg t="1651100263194" class="icon" viewBox="0 0 1024 1024" version="1.1" xmlns="http://www.w3.org/2000/svg" p-id="2352" xmlns:xlink="http://www.w3.org/1999/xlink" width="200" height="200"><defs><style type="text/css">@font-face { font-family: feedback-iconfont; src: url("//at.alicdn.com/t/font_1031158_u69w8yhxdu.woff2?t=1630033759944") format("woff2"), url("//at.alicdn.com/t/font_1031158_u69w8yhxdu.woff?t=1630033759944") format("woff"), url("//at.alicdn.com/t/font_1031158_u69w8yhxdu.ttf?t=1630033759944") format("truetype"); }
</style></defs><path d="M442.026667 285.013333c0-8.533333 1.706667-17.066667 3.413333-23.893333-11.946667-5.12-25.6-8.533333-39.253333-8.533333-51.2 0-92.16 40.96-92.16 92.16 0 25.6 10.24 47.786667 27.306666 64.853333h131.413334c11.946667-11.946667 18.773333-25.6 23.893333-40.96-32.426667-15.36-54.613333-47.786667-54.613333-83.626667z" fill="#FFBE1B" p-id="2353"></path><path d="M442.026667 285.013333c-10.24-6.826667-22.186667-10.24-35.84-10.24-37.546667 0-68.266667 30.72-68.266667 68.266667 0 29.013333 18.773333 54.613333 44.373333 64.853333h47.786667c23.893333-8.533333 40.96-29.013333 44.373333-54.613333-20.48-15.36-32.426667-40.96-32.426666-68.266667z" fill="#FFE37B" p-id="2354"></path><path d="M436.906667 358.4c0-3.413333-1.706667-8.533333-3.413334-10.24-1.706667-3.413333-5.12-5.12-10.24-5.12 1.706667 0 1.706667-1.706667 1.706667-1.706667s1.706667 0 1.706667-1.706666c3.413333-1.706667 5.12-6.826667 5.12-11.946667 0-5.12-1.706667-8.533333-5.12-11.946667-1.706667-1.706667-3.413333-3.413333-6.826667-5.12h-3.413333v-8.533333h-11.946667v8.533333h-8.533333v-8.533333h-11.946667v8.533333h-13.653333v11.946667h10.24v40.96h-10.24v11.946667h13.653333v8.533333h11.946667V375.466667h8.533333v8.533333h11.946667V375.466667c6.826667 0 11.946667-3.413333 13.653333-5.12 5.12-3.413333 6.826667-6.826667 6.826667-11.946667z m-22.186667-34.133333c1.706667 1.706667 3.413333 3.413333 3.413333 5.12 0 3.413333-1.706667 5.12-3.413333 5.12-1.706667 1.706667-5.12 1.706667-8.533333 1.706666h-6.826667v-13.653333h6.826667c3.413333 0 6.826667 1.706667 8.533333 1.706667z m3.413333 39.253333c-1.706667 1.706667-5.12 1.706667-10.24 1.706667h-10.24v-15.36h8.533334c5.12 0 8.533333 0 10.24 1.706666 1.706667 1.706667 3.413333 3.413333 3.413333 6.826667 1.706667 1.706667 1.706667 3.413333-1.706667 5.12z" fill="#FFFFFF" p-id="2355"></path><path d="M252.586667 445.44h3.413333-3.413333c-18.773333 6.826667-32.426667 20.48-37.546667 39.253333v3.413334-3.413334c-5.12-18.773333-18.773333-34.133333-37.546667-37.546666h-3.413333 3.413333c18.773333-5.12 34.133333-18.773333 37.546667-37.546667v-3.413333 3.413333c3.413333 17.066667 18.773333 30.72 37.546667 35.84zM269.653333 358.4h1.706667-1.706667c-13.653333 5.12-23.893333 15.36-27.306666 29.013333v1.706667-1.706667c-3.413333-13.653333-13.653333-23.893333-27.306667-27.306666h-1.706667 1.706667c13.653333-3.413333 23.893333-13.653333 27.306667-27.306667v-1.706667 1.706667c3.413333 11.946667 13.653333 22.186667 27.306666 25.6z" fill="#FFBE1B" p-id="2356"></path><path d="M817.493333 544.426667h1.706667-1.706667c-13.653333 5.12-25.6 15.36-29.013333 29.013333v1.706667-1.706667c-3.413333-13.653333-13.653333-25.6-29.013333-29.013333h-1.706667 1.706667c13.653333-3.413333 25.6-15.36 29.013333-29.013334v-1.706666 1.706666c3.413333 15.36 13.653333 25.6 29.013333 29.013334z" fill="#5D8EF9" p-id="2357"></path><path d="M716.8 264.533333h3.413333-3.413333c-15.36 5.12-27.306667 17.066667-32.426667 32.426667v3.413333-3.413333c-3.413333-15.36-15.36-27.306667-32.426666-32.426667H648.533333h3.413334c15.36-3.413333 27.306667-15.36 32.426666-32.426666v-3.413334 3.413334c3.413333 17.066667 15.36 29.013333 32.426667 32.426666z" fill="#330D84" p-id="2358"></path><path d="M300.373333 479.573333c11.946667 6.826667 30.72 6.826667 40.96 6.826667h262.826667c-13.653333-15.36-22.186667-37.546667-22.186667-59.733333 0-5.12 0-11.946667 1.706667-17.066667H324.266667c-25.6 0-44.373333 20.48-46.08 44.373333 1.706667 1.706667 3.413333 15.36 22.186666 25.6z" fill="#6857E5" p-id="2359"></path><path d="M674.133333 334.506667c-51.2 0-92.16 40.96-92.16 92.16 0 22.186667 8.533333 44.373333 22.186667 59.733333h83.626667c15.36 0 27.306667 6.826667 35.84 17.066667 25.6-17.066667 42.666667-44.373333 42.666666-76.8 0-51.2-40.96-92.16-92.16-92.16z" fill="#5D8EF9" p-id="2360"></path><path d="M640 484.693333h49.493333c5.12 0 10.24 1.706667 15.36 3.413334 23.893333-11.946667 39.253333-34.133333 39.253334-63.146667 0-37.546667-30.72-69.973333-68.266667-69.973333s-68.266667 30.72-68.266667 69.973333c-1.706667 25.6 11.946667 47.786667 32.426667 59.733333z" fill="#8AC9F9" p-id="2361"></path><path d="M674.133333 443.733333l-27.306666-20.48 27.306666-44.373333 29.013334 44.373333z" fill="#FFFFFF" p-id="2362"></path><path d="M674.133333 472.746667l-27.306666-44.373334 27.306666 22.186667 29.013334-22.186667z" fill="#FFFFFF" p-id="2363"></path><path d="M687.786667 798.72H324.266667c-25.6 0-46.08-20.48-46.08-46.08V452.266667s1.706667 17.066667 20.48 25.6c11.946667 6.826667 30.72 6.826667 40.96 6.826666h348.16c25.6 0 46.08 20.48 46.08 46.08v221.866667c0 25.6-20.48 46.08-46.08 46.08z" fill="#8C7BFD" p-id="2364"></path><path d="M610.986667 686.08c-11.946667 0-20.48-8.533333-20.48-20.48v-49.493333c0-11.946667 8.533333-20.48 20.48-20.48H733.866667v90.453333h-122.88z" fill="#8AC9F9" p-id="2365"></path><path d="M650.24 641.706667c0 11.946667-8.533333 20.48-20.48 20.48s-20.48-8.533333-20.48-20.48 8.533333-20.48 20.48-20.48 20.48 8.533333 20.48 20.48z" fill="#FFE37B" p-id="2366"></path><path d="M626.346667 285.013333c0 51.2-40.96 92.16-92.16 92.16-51.2 0-92.16-40.96-92.16-92.16 0-51.2 40.96-92.16 92.16-92.16 51.2 0 92.16 40.96 92.16 92.16z" fill="#330D84" p-id="2367"></path><path d="M602.453333 285.013333c0 37.546667-30.72 69.973333-68.266666 69.973334s-69.973333-30.72-69.973334-69.973334 30.72-68.266667 69.973334-68.266666c37.546667-1.706667 68.266667 29.013333 68.266666 68.266666z" fill="#5932AE" p-id="2368"></path><path d="M571.733333 302.08v-47.786667l-37.546666 39.253334-39.253334-39.253334v47.786667h-10.24v13.653333h23.893334v-30.72l25.6 25.6 25.6-25.6v30.72h23.893333v-13.653333zM498.346667 621.226667c-11.946667 0-22.186667 8.533333-23.893334 20.48H426.666667l-34.133334-39.253334h-112.64v10.24h107.52l34.133334 39.253334h51.2c1.706667 11.946667 11.946667 20.48 23.893333 20.48 13.653333 0 25.6-11.946667 25.6-25.6 1.706667-13.653333-10.24-25.6-23.893333-25.6z m0 40.96c-6.826667 0-11.946667-3.413333-13.653334-10.24h5.12c1.706667 3.413333 5.12 5.12 8.533334 5.12 5.12 0 10.24-5.12 10.24-10.24s-5.12-10.24-10.24-10.24c-3.413333 0-6.826667 1.706667-8.533334 5.12h-5.12c1.706667-5.12 6.826667-10.24 13.653334-10.24 8.533333 0 15.36 6.826667 15.36 15.36s-6.826667 15.36-15.36 15.36zM679.253333 725.333333l-17.066666-10.24H453.973333L426.666667 754.346667h-46.08c-1.706667-11.946667-11.946667-20.48-23.893334-20.48-13.653333 0-25.6 11.946667-25.6 25.6s11.946667 25.6 25.6 25.6c11.946667 0 22.186667-8.533333 23.893334-20.48h51.2l27.306666-39.253334h197.973334l17.066666 10.24H733.866667v-10.24h-54.613334z m-322.56 49.493334c-8.533333 0-15.36-6.826667-15.36-15.36s6.826667-15.36 15.36-15.36c6.826667 0 11.946667 3.413333 13.653334 10.24h-5.12c-1.706667-3.413333-5.12-5.12-8.533334-5.12-5.12 0-10.24 5.12-10.24 10.24s5.12 10.24 10.24 10.24c3.413333 0 6.826667-1.706667 8.533334-5.12h5.12c-3.413333 5.12-8.533333 10.24-13.653334 10.24zM402.773333 669.013333c-3.413333 0-6.826667 1.706667-8.533333 5.12h-51.2l-10.24 20.48h-54.613333v10.24h61.44l10.24-20.48h44.373333c1.706667 3.413333 5.12 5.12 8.533333 5.12 5.12 0 10.24-5.12 10.24-10.24 0-6.826667-5.12-10.24-10.24-10.24zM544.426667 517.12c-3.413333 0-6.826667 1.706667-8.533334 5.12h-37.546666l-20.48-11.946667h-146.773334l-10.24 20.48h-40.96v10.24h46.08l10.24-20.48h138.24l20.48 10.24h39.253334c1.706667 3.413333 5.12 5.12 8.533333 5.12 5.12 0 10.24-5.12 10.24-10.24 1.706667-5.12-3.413333-8.533333-8.533333-8.533333zM588.8 544.426667l-20.48 39.253333h-85.333333l-34.133334-27.306667h-66.56c-1.706667-3.413333-5.12-5.12-8.533333-5.12-5.12 0-10.24 5.12-10.24 10.24s5.12 10.24 10.24 10.24c3.413333 0 6.826667-1.706667 8.533333-5.12h63.146667l34.133333 27.306667h95.573334l20.48-39.253333H733.866667v-10.24h-145.066667z" fill="#FFFFFF" p-id="2369"></path></svg>